<svg width="1892" height="1892" viewBox="0 0 1892 1892" fill="none" xmlns="http://www.w3.org/2000/svg">
<g filter="url(#filter0_d_41_141)">
<circle cx="946" cy="945.999" r="689" fill="#090C11"/>
<circle cx="946" cy="945.999" r="684" stroke="#F8E7E7" stroke-width="10"/>
</g>
<path d="M1318.46 372.46L964.036 933.605L1614.92 803.816L967.518 949.988L1519.54 1318.46L958.396 964.035L1088.18 1614.92L942.013 967.517L573.54 1519.54L927.966 958.395L277.077 1088.18L924.483 942.012L372.461 573.539L933.605 927.965L803.816 277.077L949.988 924.482L1318.46 372.46Z" fill="#F8E7E7"/>
<mask id="path-4-inside-1_41_141" fill="white">
<path d="M1521 946C1521 977.709 1518.38 1009.36 1513.16 1040.64L946 946L1521 946Z"/>
</mask>
<path d="M1521 946C1521 977.709 1518.38 1009.36 1513.16 1040.64L946 946L1521 946Z" fill="black" stroke="#F8E7E7" stroke-width="10" mask="url(#path-4-inside-1_41_141)"/>
<mask id="path-5-inside-2_41_141" fill="white">
<path d="M1513.44 1040.8C1508.22 1072.09 1500.42 1102.88 1490.13 1132.88L946.185 946.184L1513.44 1040.8Z"/>
</mask>
<path d="M1513.44 1040.8C1508.22 1072.09 1500.42 1102.88 1490.13 1132.88L946.185 946.184L1513.44 1040.8Z" fill="#7A1414" stroke="#F8E7E7" stroke-width="10" mask="url(#path-5-inside-2_41_141)"/>
<mask id="path-6-inside-3_41_141" fill="white">
<path d="M1335.68 1369.29C1312.35 1390.77 1287.28 1410.28 1260.73 1427.63L946.185 946.184L1335.68 1369.29Z"/>
</mask>
<path d="M1335.68 1369.29C1312.35 1390.77 1287.28 1410.28 1260.73 1427.63L946.185 946.184L1335.68 1369.29Z" fill="#7A1414" stroke="#F8E7E7" stroke-width="10" mask="url(#path-6-inside-3_41_141)"/>
<mask id="path-7-inside-4_41_141" fill="white">
<path d="M1177.2 1472.84C1148.15 1485.58 1118.11 1495.89 1087.36 1503.68L946.185 946.184L1177.2 1472.84Z"/>
</mask>
<path d="M1177.2 1472.84C1148.15 1485.58 1118.11 1495.89 1087.36 1503.68L946.185 946.184L1177.2 1472.84Z" fill="#7A1414" stroke="#F8E7E7" stroke-width="10" mask="url(#path-7-inside-4_41_141)"/>
<mask id="path-8-inside-5_41_141" fill="white">
<path d="M993.675 1519.31C962.069 1521.93 930.3 1521.93 898.694 1519.31L946.185 946.184L993.675 1519.31Z"/>
</mask>
<path d="M993.675 1519.31C962.069 1521.93 930.3 1521.93 898.694 1519.31L946.185 946.184L993.675 1519.31Z" fill="#7A1414" stroke="#F8E7E7" stroke-width="10" mask="url(#path-8-inside-5_41_141)"/>
<mask id="path-9-inside-6_41_141" fill="white">
<path d="M805.008 1503.68C774.264 1495.89 744.217 1485.58 715.173 1472.84L946.185 946.184L805.008 1503.68Z"/>
</mask>
<path d="M805.008 1503.68C774.264 1495.89 744.217 1485.58 715.173 1472.84L946.185 946.184L805.008 1503.68Z" fill="#7A1414" stroke="#F8E7E7" stroke-width="10" mask="url(#path-9-inside-6_41_141)"/>
<mask id="path-10-inside-7_41_141" fill="white">
<path d="M631.622 1427.62C605.072 1410.27 580.003 1390.76 556.671 1369.28L946.185 946.184L631.622 1427.62Z"/>
</mask>
<path d="M631.622 1427.62C605.072 1410.27 580.003 1390.76 556.671 1369.28L946.185 946.184L631.622 1427.62Z" fill="#7A1414" stroke="#F8E7E7" stroke-width="10" mask="url(#path-10-inside-7_41_141)"/>
<mask id="path-11-inside-8_41_141" fill="white">
<path d="M492.357 1299.41C472.878 1274.38 455.502 1247.79 440.407 1219.9L946.185 946.184L492.357 1299.41Z"/>
</mask>
<path d="M492.357 1299.41C472.878 1274.38 455.502 1247.79 440.407 1219.9L946.185 946.184L492.357 1299.41Z" fill="#7A1414" stroke="#F8E7E7" stroke-width="10" mask="url(#path-11-inside-8_41_141)"/>
<mask id="path-12-inside-9_41_141" fill="white">
<path d="M402.254 1132.92C391.956 1102.92 384.157 1072.12 378.937 1040.84L946.185 946.184L402.254 1132.92Z"/>
</mask>
<path d="M402.254 1132.92C391.956 1102.92 384.157 1072.12 378.937 1040.84L946.185 946.184L402.254 1132.92Z" fill="#7A1414" stroke="#F8E7E7" stroke-width="10" mask="url(#path-12-inside-9_41_141)"/>
<mask id="path-13-inside-10_41_141" fill="white">
<path d="M371 945.999C371 914.29 373.623 882.635 378.842 851.358L946 945.999L371 945.999Z"/>
</mask>
<path d="M371 945.999C371 914.29 373.623 882.635 378.842 851.358L946 945.999L371 945.999Z" fill="#7A1414" stroke="#F8E7E7" stroke-width="10" mask="url(#path-13-inside-10_41_141)"/>
<mask id="path-14-inside-11_41_141" fill="white">
<path d="M378.937 1040.84C373.717 1009.56 371.094 977.899 371.094 946.184L946.185 946.184L378.937 1040.84Z"/>
</mask>
<path d="M378.937 1040.84C373.717 1009.56 371.094 977.899 371.094 946.184L946.185 946.184L378.937 1040.84Z" fill="black" stroke="#F8E7E7" stroke-width="10" mask="url(#path-14-inside-11_41_141)"/>
<mask id="path-15-inside-12_41_141" fill="white">
<path d="M378.937 851.527C384.157 820.245 391.956 789.448 402.254 759.452L946.185 946.184L378.937 851.527Z"/>
</mask>
<path d="M378.937 851.527C384.157 820.245 391.956 789.448 402.254 759.452L946.185 946.184L378.937 851.527Z" fill="black" stroke="#F8E7E7" stroke-width="10" mask="url(#path-15-inside-12_41_141)"/>
<mask id="path-16-inside-13_41_141" fill="white">
<path d="M402.254 759.452C412.552 729.456 425.313 700.363 440.407 672.471L946.185 946.184L402.254 759.452Z"/>
</mask>
<path d="M402.254 759.452C412.552 729.456 425.313 700.363 440.407 672.471L946.185 946.184L402.254 759.452Z" fill="#7A1414" stroke="#F8E7E7" stroke-width="10" mask="url(#path-16-inside-13_41_141)"/>
<mask id="path-17-inside-14_41_141" fill="white">
<path d="M492.357 592.956C511.837 567.928 533.353 544.555 556.686 523.076L946.185 946.184L492.357 592.956Z"/>
</mask>
<path d="M492.357 592.956C511.837 567.928 533.353 544.555 556.686 523.076L946.185 946.184L492.357 592.956Z" fill="#7A1414" stroke="#F8E7E7" stroke-width="10" mask="url(#path-17-inside-14_41_141)"/>
<mask id="path-18-inside-15_41_141" fill="white">
<path d="M631.64 464.737C658.19 447.391 686.13 432.27 715.173 419.531L946.185 946.184L631.64 464.737Z"/>
</mask>
<path d="M631.64 464.737C658.19 447.391 686.13 432.27 715.173 419.531L946.185 946.184L631.64 464.737Z" fill="#7A1414" stroke="#F8E7E7" stroke-width="10" mask="url(#path-18-inside-15_41_141)"/>
<mask id="path-19-inside-16_41_141" fill="white">
<path d="M1490.14 759.522C1500.43 789.52 1508.23 820.317 1513.44 851.6L946.185 946.184L1490.14 759.522Z"/>
</mask>
<path d="M1490.14 759.522C1500.43 789.52 1508.23 820.317 1513.44 851.6L946.185 946.184L1490.14 759.522Z" fill="black" stroke="#F8E7E7" stroke-width="10" mask="url(#path-19-inside-16_41_141)"/>
<mask id="path-20-inside-17_41_141" fill="white">
<path d="M1513.44 851.563C1518.66 882.846 1521.28 914.506 1521.28 946.221L946.185 946.184L1513.44 851.563Z"/>
</mask>
<path d="M1513.44 851.563C1518.66 882.846 1521.28 914.506 1521.28 946.221L946.185 946.184L1513.44 851.563Z" fill="#7A1414" stroke="#F8E7E7" stroke-width="10" mask="url(#path-20-inside-17_41_141)"/>
<mask id="path-21-inside-18_41_141" fill="white">
<path d="M1451.96 672.471C1467.06 700.363 1479.82 729.456 1490.12 759.452L946.185 946.184L1451.96 672.471Z"/>
</mask>
<path d="M1451.96 672.471C1467.06 700.363 1479.82 729.456 1490.12 759.452L946.185 946.184L1451.96 672.471Z" fill="#7A1414" stroke="#F8E7E7" stroke-width="10" mask="url(#path-21-inside-18_41_141)"/>
<mask id="path-22-inside-19_41_141" fill="white">
<path d="M1335.68 523.075C1359.02 544.555 1380.53 567.928 1400.01 592.956L946.185 946.184L1335.68 523.075Z"/>
</mask>
<path d="M1335.68 523.075C1359.02 544.555 1380.53 567.928 1400.01 592.956L946.185 946.184L1335.68 523.075Z" fill="#7A1414" stroke="#F8E7E7" stroke-width="10" mask="url(#path-22-inside-19_41_141)"/>
<mask id="path-23-inside-20_41_141" fill="white">
<path d="M1177.2 419.531C1206.24 432.27 1234.18 447.391 1260.73 464.737L946.185 946.184L1177.2 419.531Z"/>
</mask>
<path d="M1177.2 419.531C1206.24 432.27 1234.18 447.391 1260.73 464.737L946.185 946.184L1177.2 419.531Z" fill="#7A1414" stroke="#F8E7E7" stroke-width="10" mask="url(#path-23-inside-20_41_141)"/>
<mask id="path-24-inside-21_41_141" fill="white">
<path d="M993.675 373.057C1025.28 375.676 1056.62 380.905 1087.36 388.69L946.185 946.184L993.675 373.057Z"/>
</mask>
<path d="M993.675 373.057C1025.28 375.676 1056.62 380.905 1087.36 388.69L946.185 946.184L993.675 373.057Z" fill="#7A1414" stroke="#F8E7E7" stroke-width="10" mask="url(#path-24-inside-21_41_141)"/>
<mask id="path-25-inside-22_41_141" fill="white">
<path d="M805.008 388.69C835.752 380.905 867.088 375.676 898.694 373.057L946.185 946.184L805.008 388.69Z"/>
</mask>
<path d="M805.008 388.69C835.752 380.905 867.088 375.676 898.694 373.057L946.185 946.184L805.008 388.69Z" fill="#7A1414" stroke="#F8E7E7" stroke-width="10" mask="url(#path-25-inside-22_41_141)"/>
<mask id="path-26-inside-23_41_141" fill="white">
<path d="M1400.01 592.955C1419.49 617.983 1436.87 644.578 1451.96 672.471L946.185 946.184L1400.01 592.955Z"/>
</mask>
<path d="M1400.01 592.955C1419.49 617.983 1436.87 644.578 1451.96 672.471L946.185 946.184L1400.01 592.955Z" fill="black" stroke="#F8E7E7" stroke-width="10" mask="url(#path-26-inside-23_41_141)"/>
<mask id="path-27-inside-24_41_141" fill="white">
<path d="M1260.73 464.737C1287.28 482.083 1312.35 501.596 1335.68 523.075L946.185 946.184L1260.73 464.737Z"/>
</mask>
<path d="M1260.73 464.737C1287.28 482.083 1312.35 501.596 1335.68 523.075L946.185 946.184L1260.73 464.737Z" fill="black" stroke="#F8E7E7" stroke-width="10" mask="url(#path-27-inside-24_41_141)"/>
<mask id="path-28-inside-25_41_141" fill="white">
<path d="M1087.36 388.69C1118.11 396.476 1148.15 406.791 1177.2 419.531L946.185 946.184L1087.36 388.69Z"/>
</mask>
<path d="M1087.36 388.69C1118.11 396.476 1148.15 406.791 1177.2 419.531L946.185 946.184L1087.36 388.69Z" fill="black" stroke="#F8E7E7" stroke-width="10" mask="url(#path-28-inside-25_41_141)"/>
<mask id="path-29-inside-26_41_141" fill="white">
<path d="M898.694 373.057C930.3 370.438 962.069 370.438 993.675 373.057L946.185 946.184L898.694 373.057Z"/>
</mask>
<path d="M898.694 373.057C930.3 370.438 962.069 370.438 993.675 373.057L946.185 946.184L898.694 373.057Z" fill="black" stroke="#F8E7E7" stroke-width="10" mask="url(#path-29-inside-26_41_141)"/>
<mask id="path-30-inside-27_41_141" fill="white">
<path d="M1490.14 1132.85C1479.85 1162.84 1467.09 1191.94 1452 1219.83L946.185 946.184L1490.14 1132.85Z"/>
</mask>
<path d="M1490.14 1132.85C1479.85 1162.84 1467.09 1191.94 1452 1219.83L946.185 946.184L1490.14 1132.85Z" fill="black" stroke="#F8E7E7" stroke-width="10" mask="url(#path-30-inside-27_41_141)"/>
<mask id="path-31-inside-28_41_141" fill="white">
<path d="M1400.01 1299.41C1380.53 1324.44 1359.02 1347.81 1335.68 1369.29L946.185 946.184L1400.01 1299.41Z"/>
</mask>
<path d="M1400.01 1299.41C1380.53 1324.44 1359.02 1347.81 1335.68 1369.29L946.185 946.184L1400.01 1299.41Z" fill="black" stroke="#F8E7E7" stroke-width="10" mask="url(#path-31-inside-28_41_141)"/>
<mask id="path-32-inside-29_41_141" fill="white">
<path d="M1260.73 1427.63C1234.18 1444.98 1206.24 1460.1 1177.2 1472.84L946.185 946.184L1260.73 1427.63Z"/>
</mask>
<path d="M1260.73 1427.63C1234.18 1444.98 1206.24 1460.1 1177.2 1472.84L946.185 946.184L1260.73 1427.63Z" fill="black" stroke="#F8E7E7" stroke-width="10" mask="url(#path-32-inside-29_41_141)"/>
<mask id="path-33-inside-30_41_141" fill="white">
<path d="M1087.36 1503.68C1056.62 1511.46 1025.28 1516.69 993.675 1519.31L946.185 946.184L1087.36 1503.68Z"/>
</mask>
<path d="M1087.36 1503.68C1056.62 1511.46 1025.28 1516.69 993.675 1519.31L946.185 946.184L1087.36 1503.68Z" fill="black" stroke="#F8E7E7" stroke-width="10" mask="url(#path-33-inside-30_41_141)"/>
<mask id="path-34-inside-31_41_141" fill="white">
<path d="M898.694 1519.31C867.088 1516.69 835.752 1511.46 805.008 1503.68L946.185 946.184L898.694 1519.31Z"/>
</mask>
<path d="M898.694 1519.31C867.088 1516.69 835.752 1511.46 805.008 1503.68L946.185 946.184L898.694 1519.31Z" fill="black" stroke="#F8E7E7" stroke-width="10" mask="url(#path-34-inside-31_41_141)"/>
<mask id="path-35-inside-32_41_141" fill="white">
<path d="M715.173 419.531C744.217 406.791 774.264 396.476 805.008 388.69L946.185 946.184L715.173 419.531Z"/>
</mask>
<path d="M715.173 419.531C744.217 406.791 774.264 396.476 805.008 388.69L946.185 946.184L715.173 419.531Z" fill="black" stroke="#F8E7E7" stroke-width="10" mask="url(#path-35-inside-32_41_141)"/>
<mask id="path-36-inside-33_41_141" fill="white">
<path d="M715.212 1472.85C686.168 1460.12 658.227 1445 631.675 1427.65L946.185 946.184L715.212 1472.85Z"/>
</mask>
<path d="M715.212 1472.85C686.168 1460.12 658.227 1445 631.675 1427.65L946.185 946.184L715.212 1472.85Z" fill="black" stroke="#F8E7E7" stroke-width="10" mask="url(#path-36-inside-33_41_141)"/>
<mask id="path-37-inside-34_41_141" fill="white">
<path d="M556.686 523.076C580.019 501.596 605.089 482.083 631.64 464.737L946.185 946.184L556.686 523.076Z"/>
</mask>
<path d="M556.686 523.076C580.019 501.596 605.089 482.083 631.64 464.737L946.185 946.184L556.686 523.076Z" fill="black" stroke="#F8E7E7" stroke-width="10" mask="url(#path-37-inside-34_41_141)"/>
<mask id="path-38-inside-35_41_141" fill="white">
<path d="M556.686 1369.29C533.353 1347.81 511.837 1324.44 492.357 1299.41L946.185 946.184L556.686 1369.29Z"/>
</mask>
<path d="M556.686 1369.29C533.353 1347.81 511.837 1324.44 492.357 1299.41L946.185 946.184L556.686 1369.29Z" fill="black" stroke="#F8E7E7" stroke-width="10" mask="url(#path-38-inside-35_41_141)"/>
<mask id="path-39-inside-36_41_141" fill="white">
<path d="M440.407 1219.9C425.313 1192 412.551 1162.91 402.254 1132.92L946.185 946.184L440.407 1219.9Z"/>
</mask>
<path d="M440.407 1219.9C425.313 1192 412.551 1162.91 402.254 1132.92L946.185 946.184L440.407 1219.9Z" fill="black" stroke="#F8E7E7" stroke-width="10" mask="url(#path-39-inside-36_41_141)"/>
<mask id="path-40-inside-37_41_141" fill="white">
<path d="M440.407 672.471C455.502 644.579 472.877 617.983 492.357 592.956L946.185 946.184L440.407 672.471Z"/>
</mask>
<path d="M440.407 672.471C455.502 644.579 472.877 617.983 492.357 592.956L946.185 946.184L440.407 672.471Z" fill="#156108" stroke="#F8E7E7" stroke-width="10" mask="url(#path-40-inside-37_41_141)"/>
<mask id="path-41-inside-38_41_141" fill="white">
<path d="M1451.96 1219.9C1436.87 1247.79 1419.49 1274.38 1400.01 1299.41L946.185 946.184L1451.96 1219.9Z"/>
</mask>
<path d="M1451.96 1219.9C1436.87 1247.79 1419.49 1274.38 1400.01 1299.41L946.185 946.184L1451.96 1219.9Z" fill="#156108" stroke="#F8E7E7" stroke-width="10" mask="url(#path-41-inside-38_41_141)"/>
<path d="M950.375 404.277C951.352 404.902 952.104 405.707 952.631 406.694C953.168 407.67 953.437 408.73 953.437 409.872C953.437 411.113 953.124 412.26 952.499 413.315C951.884 414.369 951.054 415.165 950.009 415.702C948.964 416.23 947.631 416.493 946.01 416.493C944.272 416.493 942.89 416.24 941.865 415.732C940.839 415.214 940.019 414.438 939.404 413.403C938.788 412.358 938.481 411.181 938.481 409.872C938.481 408.74 938.725 407.709 939.213 406.782C939.711 405.844 940.453 405.009 941.44 404.277C940.795 403.622 940.307 402.929 939.975 402.197C939.653 401.454 939.491 400.673 939.491 399.853C939.491 398.73 939.76 397.709 940.297 396.791C940.844 395.864 941.606 395.146 942.582 394.638C943.559 394.12 944.687 393.862 945.966 393.862C947.226 393.862 948.334 394.12 949.291 394.638C950.248 395.156 951 395.893 951.547 396.85C952.104 397.797 952.382 398.818 952.382 399.911C952.382 400.683 952.236 401.401 951.943 402.065C951.659 402.719 951.137 403.456 950.375 404.277ZM945.834 397.817C945.16 397.817 944.604 398.041 944.164 398.49C943.735 398.93 943.52 399.496 943.52 400.19C943.52 400.883 943.749 401.464 944.208 401.933C944.667 402.402 945.234 402.636 945.908 402.636C946.601 402.636 947.167 402.407 947.607 401.948C948.056 401.489 948.281 400.893 948.281 400.16C948.281 399.467 948.056 398.906 947.607 398.476C947.158 398.036 946.567 397.817 945.834 397.817ZM945.995 406.459C945.009 406.459 944.179 406.762 943.505 407.367C942.831 407.963 942.494 408.676 942.494 409.506C942.494 410.375 942.812 411.113 943.447 411.718C944.081 412.314 944.916 412.612 945.951 412.612C946.996 412.612 947.826 412.333 948.442 411.777C949.067 411.21 949.379 410.483 949.379 409.594C949.379 408.705 949.057 407.963 948.412 407.367C947.768 406.762 946.962 406.459 945.995 406.459Z" fill="white"/>
<path d="M843.267 399.14L849.321 398.13L852.868 419.384L848.851 420.054L845.938 402.6L841.561 403.331L843.267 399.14ZM861.286 403.173L857.341 403.831C857.065 401.521 857.482 399.6 858.593 398.068C859.711 396.525 861.316 395.579 863.406 395.23C864.697 395.015 865.879 395.1 866.953 395.485C868.035 395.859 868.956 396.512 869.716 397.444C870.483 398.366 870.956 399.356 871.133 400.416C871.343 401.678 871.208 403.096 870.729 404.671C870.259 406.245 869.236 408.183 867.659 410.485L865.695 413.397L873.266 412.134L873.891 415.876L859.167 418.333L858.844 416.397L864.3 408.595C865.621 406.722 866.46 405.255 866.818 404.195C867.184 403.124 867.301 402.194 867.169 401.404C867.032 400.585 866.645 399.957 866.008 399.519C865.378 399.069 864.635 398.916 863.778 399.059C862.911 399.204 862.242 399.647 861.772 400.389C861.302 401.131 861.14 402.059 861.286 403.173Z" fill="white"/>
<path d="M1024.76 401.021L1030.82 402.031L1027.27 423.285L1023.25 422.615L1026.17 405.161L1021.79 404.43L1024.76 401.021ZM1040.84 426.097L1037.68 423.818L1042.6 417.213C1040.8 416.913 1039.37 416.012 1038.33 414.511C1037.28 413.01 1036.92 411.301 1037.24 409.384C1037.55 407.525 1038.46 406.062 1039.96 404.996C1041.48 403.922 1043.15 403.538 1044.98 403.843C1046.9 404.163 1048.38 405.099 1049.43 406.65C1050.49 408.193 1050.87 409.831 1050.58 411.565C1050.47 412.22 1050.26 412.863 1049.95 413.494C1049.65 414.117 1049.02 415.057 1048.08 416.316L1040.84 426.097ZM1043.47 413.423C1044.22 413.548 1044.9 413.379 1045.5 412.915C1046.1 412.451 1046.47 411.815 1046.61 411.006C1046.74 410.177 1046.59 409.439 1046.14 408.79C1045.71 408.143 1045.13 407.76 1044.42 407.641C1043.67 407.516 1042.98 407.687 1042.34 408.156C1041.71 408.615 1041.33 409.259 1041.19 410.087C1041.05 410.906 1041.2 411.633 1041.63 412.269C1042.07 412.907 1042.68 413.291 1043.47 413.423Z" fill="white"/>
<path d="M756.858 424.482L753.076 425.78C752.423 423.547 752.518 421.584 753.361 419.89C754.211 418.184 755.638 416.987 757.642 416.299C758.88 415.874 760.06 415.763 761.183 415.966C762.312 416.157 763.328 416.649 764.23 417.444C765.139 418.227 765.768 419.126 766.117 420.142C766.532 421.352 766.633 422.773 766.419 424.406C766.214 426.035 765.524 428.115 764.348 430.646L762.89 433.841L770.15 431.349L771.382 434.937L757.264 439.784L756.626 437.927L760.723 429.335C761.718 427.269 762.304 425.684 762.483 424.58C762.667 423.463 762.63 422.526 762.37 421.769C762.1 420.984 761.615 420.428 760.914 420.101C760.219 419.761 759.461 419.732 758.639 420.014C757.807 420.3 757.221 420.847 756.879 421.656C756.537 422.465 756.53 423.407 756.858 424.482ZM780.397 432.415L776.538 431.912L777.721 423.763C775.994 424.356 774.313 424.241 772.678 423.419C771.043 422.596 769.91 421.266 769.279 419.428C768.667 417.645 768.769 415.927 769.585 414.274C770.407 412.608 771.695 411.474 773.45 410.872C775.288 410.241 777.037 410.358 778.697 411.223C780.363 412.076 781.482 413.334 782.052 414.996C782.268 415.625 782.388 416.291 782.413 416.994C782.444 417.686 782.344 418.809 782.114 420.365L780.397 432.415ZM776.682 420.015C777.402 419.768 777.917 419.297 778.226 418.602C778.535 417.908 778.556 417.173 778.29 416.397C778.017 415.602 777.53 415.026 776.829 414.668C776.137 414.307 775.449 414.243 774.766 414.478C774.045 414.725 773.518 415.206 773.185 415.919C772.848 416.623 772.817 417.372 773.089 418.166C773.359 418.952 773.833 419.522 774.513 419.877C775.202 420.229 775.925 420.275 776.682 420.015Z" fill="white"/>
<path d="M1113.96 426.959L1110.24 425.679C1110.95 424.24 1111.9 423.216 1113.11 422.606C1114.78 421.756 1116.56 421.653 1118.43 422.297C1120.1 422.871 1121.32 423.883 1122.08 425.332C1122.85 426.784 1122.99 428.24 1122.49 429.699C1122.18 430.604 1121.64 431.345 1120.89 431.922C1120.14 432.502 1119.22 432.862 1118.12 433C1119.23 433.794 1119.97 434.772 1120.35 435.934C1120.73 437.089 1120.71 438.29 1120.29 439.537C1119.66 441.366 1118.45 442.686 1116.67 443.498C1114.88 444.3 1112.95 444.343 1110.86 443.626C1108.88 442.948 1107.48 441.799 1106.64 440.179C1105.8 438.55 1105.68 436.685 1106.27 434.584L1110.1 435.902C1109.91 437.012 1110 437.922 1110.39 438.633C1110.79 439.338 1111.42 439.839 1112.29 440.137C1113.2 440.448 1114.04 440.414 1114.83 440.035C1115.63 439.659 1116.18 439.051 1116.47 438.21C1116.78 437.287 1116.65 436.368 1116.07 435.455C1115.48 434.542 1114.43 433.816 1112.93 433.278L1114.07 429.952C1115.03 430.199 1115.77 430.294 1116.29 430.236C1116.83 430.173 1117.29 429.995 1117.67 429.702C1118.06 429.412 1118.33 429.055 1118.47 428.63C1118.66 428.076 1118.62 427.552 1118.36 427.059C1118.1 426.556 1117.65 426.197 1117.03 425.981C1116.47 425.791 1115.91 425.789 1115.34 425.975C1114.77 426.152 1114.32 426.48 1113.96 426.959ZM1130.88 427.143L1136.68 429.137L1129.68 449.517L1125.83 448.194L1131.58 431.458L1127.38 430.017L1130.88 427.143Z" fill="white"/>
<path d="M677.007 471.353L673.49 473.256C672.479 471.161 672.249 469.209 672.802 467.399C673.359 465.577 674.57 464.161 676.434 463.153C677.584 462.53 678.73 462.226 679.871 462.241C681.016 462.244 682.099 462.563 683.121 463.198C684.146 463.82 684.914 464.604 685.425 465.548C686.034 466.674 686.367 468.059 686.425 469.704C686.491 471.345 686.153 473.51 685.41 476.2L684.497 479.592L691.248 475.939L693.054 479.275L679.926 486.38L678.992 484.653L681.619 475.503C682.259 473.302 682.577 471.642 682.571 470.524C682.57 469.392 682.378 468.474 681.997 467.77C681.602 467.04 681.032 466.571 680.287 466.364C679.546 466.143 678.793 466.24 678.028 466.653C677.255 467.072 676.767 467.708 676.563 468.562C676.359 469.417 676.507 470.347 677.007 471.353ZM688.299 457.348L697.175 452.544L698.974 455.868L692.79 459.214L693.886 463.085C694.068 462.909 694.255 462.752 694.447 462.615C694.635 462.469 694.823 462.345 695.012 462.242C696.73 461.313 698.474 461.13 700.244 461.693C702.019 462.243 703.401 463.432 704.391 465.262C705.39 467.108 705.603 469.009 705.028 470.963C704.457 472.904 703.27 474.363 701.467 475.339C699.852 476.213 698.216 476.504 696.559 476.212C694.903 475.921 693.462 475.074 692.236 473.672L696.024 471.622C696.637 472.056 697.263 472.3 697.903 472.354C698.546 472.394 699.156 472.259 699.731 471.947C700.53 471.515 701.053 470.86 701.3 469.983C701.546 469.105 701.426 468.215 700.938 467.314C700.464 466.438 699.814 465.862 698.988 465.587C698.166 465.299 697.385 465.355 696.647 465.755C696.251 465.969 695.914 466.279 695.635 466.686C695.364 467.088 695.15 467.586 694.995 468.181L691.702 469.114L688.299 457.348Z" fill="white"/>
<path d="M1197.99 456.148L1203.38 459.069L1193.13 478.02L1189.55 476.082L1197.97 460.519L1194.07 458.407L1197.99 456.148ZM1215.01 476.585C1215.57 477.6 1215.85 478.666 1215.84 479.784C1215.85 480.899 1215.58 481.959 1215.04 482.964C1214.45 484.054 1213.63 484.915 1212.57 485.545C1211.53 486.18 1210.42 486.485 1209.25 486.46C1208.08 486.426 1206.78 486.024 1205.35 485.252C1203.83 484.425 1202.73 483.544 1202.07 482.609C1201.42 481.666 1201.06 480.593 1201.01 479.39C1200.97 478.178 1201.26 476.996 1201.88 475.846C1202.42 474.849 1203.13 474.059 1204 473.476C1204.88 472.888 1205.93 472.507 1207.15 472.332C1206.89 471.45 1206.79 470.608 1206.85 469.806C1206.92 469 1207.15 468.236 1207.54 467.515C1208.08 466.527 1208.8 465.757 1209.71 465.205C1210.63 464.65 1211.64 464.381 1212.74 464.399C1213.85 464.409 1214.96 464.718 1216.09 465.327C1217.19 465.926 1218.05 466.682 1218.64 467.592C1219.24 468.503 1219.55 469.509 1219.57 470.611C1219.61 471.709 1219.37 472.739 1218.85 473.701C1218.48 474.38 1218.01 474.941 1217.44 475.386C1216.88 475.826 1216.07 476.226 1215.01 476.585ZM1214.09 468.743C1213.5 468.422 1212.9 468.354 1212.3 468.54C1211.71 468.722 1211.25 469.118 1210.92 469.728C1210.59 470.338 1210.52 470.958 1210.7 471.589C1210.88 472.22 1211.27 472.695 1211.86 473.016C1212.47 473.346 1213.08 473.414 1213.68 473.219C1214.29 473.029 1214.78 472.612 1215.12 471.968C1215.45 471.358 1215.52 470.758 1215.33 470.166C1215.15 469.566 1214.73 469.091 1214.09 468.743ZM1210.12 476.42C1209.25 475.951 1208.38 475.822 1207.49 476.034C1206.62 476.237 1205.98 476.704 1205.59 477.434C1205.17 478.198 1205.1 478.998 1205.37 479.832C1205.65 480.658 1206.24 481.318 1207.15 481.81C1208.07 482.307 1208.93 482.458 1209.74 482.261C1210.56 482.06 1211.18 481.569 1211.6 480.788C1212.02 480.006 1212.09 479.2 1211.81 478.369C1211.53 477.53 1210.97 476.88 1210.12 476.42Z" fill="white"/>
<path d="M597.493 517.353L602.336 513.583L615.571 530.587L612.358 533.088L601.489 519.124L597.986 521.85L597.493 517.353ZM613.112 504.509C614.353 503.543 615.657 503.017 617.025 502.93C618.4 502.837 619.82 503.229 621.283 504.108C622.748 504.972 624.35 506.522 626.09 508.757C627.847 511.015 628.964 512.967 629.441 514.613C629.925 516.253 629.979 517.696 629.6 518.944C629.216 520.183 628.385 521.301 627.105 522.296C625.826 523.292 624.52 523.832 623.187 523.917C621.855 524.001 620.471 523.63 619.036 522.804C617.601 521.978 616.014 520.448 614.274 518.213C611.845 515.092 610.566 512.455 610.438 510.303C610.31 507.928 611.201 505.996 613.112 504.509ZM615.586 507.521C615.039 507.947 614.692 508.502 614.544 509.186C614.39 509.863 614.534 510.716 614.976 511.745C615.419 512.774 616.282 514.114 617.565 515.763C619.239 517.913 620.651 519.202 621.801 519.631C622.953 520.046 623.938 519.936 624.755 519.3C625.541 518.688 625.862 517.813 625.718 516.675C625.549 515.297 624.607 513.506 622.891 511.302C621.152 509.067 619.698 507.723 618.53 507.272C617.369 506.814 616.388 506.897 615.586 507.521Z" fill="white"/>
<path d="M1286.75 509.807L1288.43 513.324L1280.96 516.792C1282.41 517.913 1283.23 519.383 1283.44 521.202C1283.64 523.02 1283.15 524.696 1281.95 526.23C1280.8 527.71 1279.3 528.561 1277.46 528.784C1275.63 529.006 1273.98 528.546 1272.52 527.407C1270.98 526.213 1270.12 524.686 1269.92 522.825C1269.74 520.962 1270.18 519.341 1271.26 517.961C1271.66 517.437 1272.15 516.969 1272.72 516.557C1273.3 516.151 1274.3 515.619 1275.73 514.961L1286.75 509.807ZM1278.4 519.711C1277.79 519.244 1277.12 519.07 1276.37 519.192C1275.62 519.306 1275 519.69 1274.49 520.345C1273.98 521 1273.76 521.716 1273.84 522.493C1273.92 523.276 1274.25 523.889 1274.82 524.333C1275.42 524.801 1276.11 524.983 1276.88 524.88C1277.65 524.776 1278.3 524.389 1278.82 523.719C1279.33 523.064 1279.54 522.355 1279.46 521.594C1279.38 520.831 1279.03 520.203 1278.4 519.711Z" fill="white"/>
<path d="M537.97 583.482L535.261 586.424C533.624 584.771 532.773 582.999 532.709 581.108C532.644 579.203 533.329 577.471 534.764 575.912C535.65 574.949 536.636 574.29 537.72 573.934C538.803 573.565 539.931 573.514 541.104 573.784C542.275 574.04 543.256 574.531 544.047 575.259C544.988 576.125 545.753 577.327 546.342 578.865C546.937 580.395 547.32 582.553 547.491 585.338L547.729 588.842L552.927 583.195L555.719 585.765L545.609 596.747L544.165 595.417L543.678 585.91C543.57 583.62 543.331 581.947 542.963 580.891C542.594 579.821 542.115 579.015 541.526 578.473C540.915 577.911 540.223 577.653 539.451 577.698C538.679 577.73 537.998 578.066 537.409 578.705C536.814 579.352 536.559 580.113 536.643 580.987C536.728 581.861 537.17 582.693 537.97 583.482ZM541.929 568.929L551.503 558.529L553.087 559.988L561.167 580.646L557.577 582.06L550.875 564.9L544.763 571.538L541.929 568.929Z" fill="white"/>
<path d="M1339.37 566.438L1336.66 563.495C1338.44 562 1340.28 561.299 1342.17 561.391C1344.07 561.483 1345.74 562.309 1347.18 563.868C1348.06 564.831 1348.64 565.867 1348.9 566.977C1349.18 568.088 1349.14 569.216 1348.77 570.362C1348.42 571.508 1347.85 572.446 1347.06 573.173C1346.12 574.039 1344.86 574.703 1343.28 575.162C1341.7 575.629 1339.52 575.833 1336.73 575.773L1333.22 575.721L1338.42 581.368L1335.63 583.937L1325.52 572.955L1326.96 571.626L1336.48 571.926C1338.77 572.007 1340.46 571.908 1341.54 571.628C1342.63 571.348 1343.48 570.937 1344.07 570.395C1344.68 569.833 1344.99 569.165 1345.01 568.392C1345.04 567.619 1344.76 566.913 1344.18 566.274C1343.58 565.627 1342.84 565.31 1341.97 565.322C1341.09 565.334 1340.22 565.706 1339.37 566.438ZM1355.67 573.892L1359.82 578.408L1343.97 593.001L1341.21 590.005L1354.23 578.021L1351.23 574.755L1355.67 573.892Z" fill="white"/>
<path d="M481.385 651.241C482.245 649.925 483.308 649.004 484.573 648.478C485.844 647.943 487.314 647.853 488.983 648.209C490.649 648.551 492.668 649.497 495.039 651.046C497.434 652.611 499.124 654.094 500.11 655.496C501.101 656.89 501.62 658.238 501.667 659.541C501.706 660.838 501.282 662.165 500.396 663.522C499.509 664.879 498.449 665.814 497.216 666.326C495.983 666.839 494.554 666.937 492.928 666.622C491.303 666.307 489.305 665.375 486.934 663.826C483.623 661.662 481.557 659.584 480.737 657.59C479.844 655.385 480.06 653.269 481.385 651.241ZM484.703 653.287C484.324 653.867 484.175 654.505 484.258 655.201C484.332 655.891 484.745 656.651 485.498 657.48C486.25 658.31 487.501 659.297 489.251 660.44C491.532 661.93 493.286 662.691 494.513 662.723C495.738 662.742 496.633 662.318 497.199 661.451C497.744 660.617 497.764 659.685 497.259 658.655C496.651 657.407 495.178 656.019 492.84 654.491C490.469 652.942 488.658 652.144 487.406 652.096C486.16 652.04 485.259 652.437 484.703 653.287ZM490.583 637.163C491.443 635.847 492.505 634.926 493.771 634.399C495.042 633.865 496.512 633.775 498.181 634.131C499.847 634.473 501.865 635.418 504.236 636.967C506.632 638.532 508.322 640.016 509.308 641.418C510.298 642.812 510.817 644.16 510.865 645.462C510.904 646.759 510.48 648.087 509.593 649.444C508.707 650.801 507.647 651.736 506.414 652.248C505.181 652.761 503.751 652.859 502.126 652.544C500.501 652.229 498.503 651.296 496.132 649.747C492.821 647.584 490.755 645.506 489.935 643.512C489.042 641.307 489.258 639.191 490.583 637.163ZM493.901 639.209C493.522 639.789 493.373 640.427 493.455 641.122C493.529 641.812 493.943 642.572 494.695 643.402C495.448 644.232 496.699 645.219 498.449 646.362C500.73 647.852 502.484 648.613 503.711 648.645C504.935 648.664 505.831 648.239 506.397 647.373C506.942 646.539 506.962 645.607 506.456 644.577C505.849 643.329 504.376 641.941 502.038 640.413C499.667 638.864 497.856 638.065 496.604 638.018C495.357 637.961 494.456 638.358 493.901 639.209Z" fill="white"/>
<path d="M1395.43 638.038L1393.28 634.74C1394.72 634.041 1396.11 633.819 1397.43 634.075C1399.27 634.433 1400.74 635.442 1401.82 637.102C1402.79 638.582 1403.13 640.127 1402.84 641.739C1402.55 643.359 1401.77 644.591 1400.48 645.435C1399.67 645.958 1398.8 646.216 1397.85 646.207C1396.9 646.206 1395.95 645.922 1395 645.356C1395.39 646.665 1395.37 647.893 1394.96 649.04C1394.55 650.19 1393.8 651.126 1392.7 651.847C1391.08 652.905 1389.31 653.205 1387.41 652.749C1385.51 652.287 1383.95 651.132 1382.75 649.285C1381.6 647.535 1381.2 645.764 1381.53 643.972C1381.87 642.173 1382.92 640.626 1384.67 639.328L1386.89 642.725C1386.06 643.481 1385.57 644.258 1385.44 645.056C1385.32 645.857 1385.52 646.641 1386.02 647.41C1386.54 648.211 1387.23 648.705 1388.09 648.891C1388.95 649.086 1389.75 648.941 1390.5 648.455C1391.31 647.92 1391.77 647.113 1391.87 646.034C1391.97 644.954 1391.59 643.738 1390.73 642.387L1393.67 640.464C1394.28 641.247 1394.81 641.777 1395.26 642.055C1395.72 642.335 1396.19 642.477 1396.67 642.478C1397.16 642.488 1397.59 642.37 1397.96 642.125C1398.45 641.804 1398.75 641.368 1398.84 640.816C1398.94 640.259 1398.81 639.703 1398.45 639.147C1398.13 638.656 1397.69 638.31 1397.12 638.107C1396.57 637.898 1396 637.876 1395.43 638.038ZM1404.63 652.116L1402.48 648.817C1403.92 648.118 1405.3 647.897 1406.63 648.153C1408.47 648.511 1409.93 649.52 1411.02 651.18C1411.98 652.659 1412.32 654.205 1412.04 655.817C1411.75 657.437 1410.96 658.669 1409.67 659.513C1408.87 660.036 1408 660.293 1407.05 660.285C1406.1 660.284 1405.15 660 1404.2 659.433C1404.59 660.743 1404.57 661.971 1404.15 663.118C1403.75 664.268 1403 665.204 1401.89 665.925C1400.28 666.983 1398.51 667.283 1396.6 666.827C1394.7 666.365 1393.15 665.21 1391.94 663.363C1390.8 661.613 1390.4 659.842 1390.73 658.049C1391.07 656.251 1392.12 654.704 1393.87 653.406L1396.09 656.803C1395.26 657.559 1394.77 658.336 1394.64 659.134C1394.52 659.934 1394.71 660.719 1395.22 661.487C1395.74 662.289 1396.43 662.783 1397.29 662.969C1398.15 663.164 1398.95 663.019 1399.7 662.532C1400.51 661.998 1400.97 661.191 1401.07 660.111C1401.17 659.032 1400.79 657.816 1399.93 656.465L1402.87 654.542C1403.48 655.325 1404.01 655.855 1404.46 656.133C1404.92 656.413 1405.39 656.554 1405.87 656.556C1406.35 656.566 1406.78 656.448 1407.16 656.202C1407.65 655.882 1407.94 655.446 1408.04 654.894C1408.14 654.337 1408.01 653.781 1407.65 653.225C1407.33 652.734 1406.88 652.387 1406.32 652.185C1405.76 651.976 1405.2 651.953 1404.63 652.116Z" fill="white"/>
<path d="M441.783 726.447L444.249 720.826L463.982 729.482L462.346 733.211L446.141 726.103L444.358 730.168L441.783 726.447Z" fill="white"/>
<path d="M1445.13 712.388L1447.59 718.009L1427.86 726.663L1426.22 722.934L1442.43 715.827L1440.65 711.762L1445.13 712.388ZM1453.89 731.019L1453.69 734.912L1445.47 734.406C1446.21 736.078 1446.23 737.763 1445.55 739.46C1444.86 741.157 1443.63 742.396 1441.85 743.176C1440.13 743.929 1438.41 743.965 1436.68 743.283C1434.97 742.606 1433.74 741.418 1432.99 739.719C1432.21 737.94 1432.18 736.184 1432.89 734.454C1433.62 732.728 1434.78 731.514 1436.38 730.812C1436.99 730.545 1437.64 730.366 1438.34 730.274C1439.04 730.191 1440.17 730.2 1441.74 730.301L1453.89 731.019ZM1441.83 735.75C1441.52 735.052 1441.01 734.578 1440.29 734.328C1439.58 734.074 1438.85 734.113 1438.09 734.446C1437.33 734.78 1436.79 735.306 1436.49 736.026C1436.19 736.754 1436.19 737.449 1436.48 738.111C1436.78 738.808 1437.3 739.296 1438.03 739.573C1438.76 739.85 1439.51 739.818 1440.29 739.477C1441.05 739.144 1441.58 738.621 1441.86 737.91C1442.16 737.203 1442.15 736.483 1441.83 735.75Z" fill="white"/>
<path d="M955.786 1498.05H941.651V1495.9L951.377 1475.96L954.849 1477.64L946.763 1494.2H955.786V1498.05Z" fill="white"/>
<path d="M1051.88 1493.31L1045.82 1494.32L1042.28 1473.07L1046.3 1472.4L1049.21 1489.85L1053.59 1489.12L1051.88 1493.31ZM1035.29 1496.08L1029.24 1497.09L1025.69 1475.84L1029.71 1475.17L1032.62 1492.62L1037 1491.89L1035.29 1496.08Z" fill="white"/>
<path d="M871.238 1484.54L875.182 1485.19C874.694 1487.47 873.676 1489.15 872.128 1490.24C870.569 1491.34 868.744 1491.71 866.654 1491.36C865.363 1491.15 864.272 1490.68 863.381 1489.97C862.479 1489.26 861.82 1488.35 861.405 1487.22C860.978 1486.1 860.853 1485.01 861.029 1483.95C861.24 1482.69 861.828 1481.39 862.793 1480.05C863.748 1478.72 865.345 1477.22 867.583 1475.55L870.387 1473.43L862.815 1472.17L863.44 1468.43L878.163 1470.89L877.84 1472.82L870.147 1478.43C868.29 1479.77 867.02 1480.89 866.337 1481.77C865.644 1482.67 865.231 1483.51 865.099 1484.3C864.963 1485.12 865.125 1485.84 865.585 1486.46C866.035 1487.09 866.688 1487.48 867.545 1487.62C868.412 1487.76 869.189 1487.56 869.874 1487.01C870.56 1486.46 871.014 1485.64 871.238 1484.54ZM850.356 1488.64C848.805 1488.38 847.534 1487.78 846.544 1486.83C845.544 1485.88 844.871 1484.57 844.526 1482.9C844.17 1481.24 844.225 1479.01 844.691 1476.22C845.162 1473.39 845.841 1471.25 846.729 1469.79C847.607 1468.32 848.633 1467.3 849.807 1466.73C850.979 1466.18 852.365 1466.03 853.964 1466.3C855.563 1466.57 856.845 1467.16 857.809 1468.08C858.774 1469.01 859.439 1470.28 859.803 1471.89C860.167 1473.51 860.116 1475.71 859.65 1478.5C858.999 1482.41 857.926 1485.13 856.429 1486.68C854.769 1488.39 852.744 1489.04 850.356 1488.64ZM850.896 1484.78C851.579 1484.9 852.223 1484.78 852.827 1484.42C853.429 1484.08 853.959 1483.39 854.417 1482.37C854.874 1481.35 855.275 1479.8 855.619 1477.74C856.067 1475.06 856.059 1473.14 855.596 1472.01C855.121 1470.88 854.373 1470.23 853.351 1470.06C852.369 1469.89 851.508 1470.25 850.767 1471.13C849.868 1472.18 849.189 1474.09 848.729 1476.85C848.263 1479.64 848.26 1481.62 848.719 1482.78C849.168 1483.95 849.894 1484.61 850.896 1484.78Z" fill="white"/>
<path d="M1138.37 1469.66L1142.1 1468.38C1142.42 1469.95 1142.3 1471.35 1141.72 1472.57C1140.92 1474.27 1139.59 1475.44 1137.71 1476.08C1136.04 1476.66 1134.46 1476.61 1132.97 1475.93C1131.47 1475.26 1130.47 1474.19 1129.96 1472.73C1129.65 1471.83 1129.62 1470.92 1129.86 1470C1130.09 1469.08 1130.6 1468.23 1131.39 1467.45C1130.02 1467.5 1128.83 1467.19 1127.82 1466.5C1126.81 1465.83 1126.09 1464.87 1125.66 1463.62C1125.03 1461.79 1125.17 1460.01 1126.08 1458.27C1127 1456.54 1128.5 1455.32 1130.59 1454.6C1132.56 1453.92 1134.38 1453.97 1136.03 1454.73C1137.69 1455.5 1138.94 1456.9 1139.76 1458.92L1135.93 1460.23C1135.4 1459.24 1134.76 1458.58 1134.02 1458.25C1133.28 1457.94 1132.47 1457.94 1131.6 1458.23C1130.69 1458.54 1130.05 1459.09 1129.65 1459.88C1129.25 1460.67 1129.2 1461.48 1129.49 1462.32C1129.8 1463.24 1130.47 1463.89 1131.5 1464.25C1132.52 1464.61 1133.79 1464.54 1135.31 1464.04L1136.45 1467.36C1135.55 1467.76 1134.9 1468.14 1134.52 1468.51C1134.14 1468.89 1133.88 1469.31 1133.76 1469.77C1133.64 1470.24 1133.64 1470.69 1133.79 1471.11C1133.98 1471.67 1134.33 1472.06 1134.84 1472.28C1135.36 1472.52 1135.93 1472.53 1136.56 1472.31C1137.11 1472.12 1137.56 1471.78 1137.89 1471.28C1138.23 1470.79 1138.39 1470.25 1138.37 1469.66ZM1121.88 1481.52C1120.39 1482.03 1118.98 1482.1 1117.66 1481.74C1116.33 1481.38 1115.12 1480.55 1114.02 1479.25C1112.91 1477.95 1111.9 1475.97 1110.98 1473.29C1110.05 1470.58 1109.63 1468.37 1109.71 1466.66C1109.79 1464.95 1110.21 1463.57 1110.97 1462.51C1111.73 1461.47 1112.88 1460.68 1114.42 1460.15C1115.95 1459.63 1117.36 1459.54 1118.65 1459.89C1119.94 1460.25 1121.12 1461.05 1122.21 1462.29C1123.3 1463.54 1124.31 1465.5 1125.23 1468.18C1126.51 1471.92 1126.86 1474.83 1126.29 1476.91C1125.64 1479.2 1124.17 1480.73 1121.88 1481.52ZM1120.51 1477.87C1121.17 1477.64 1121.68 1477.23 1122.04 1476.63C1122.41 1476.04 1122.55 1475.19 1122.46 1474.07C1122.38 1472.95 1122 1471.41 1121.32 1469.43C1120.43 1466.85 1119.52 1465.17 1118.57 1464.4C1117.61 1463.63 1116.65 1463.41 1115.67 1463.75C1114.72 1464.07 1114.14 1464.8 1113.9 1465.92C1113.62 1467.28 1113.93 1469.28 1114.83 1471.92C1115.75 1474.6 1116.69 1476.34 1117.65 1477.15C1118.6 1477.96 1119.55 1478.2 1120.51 1477.87Z" fill="white"/>
<path d="M781.181 1465.49L784.908 1466.77C784.197 1468.21 783.241 1469.24 782.041 1469.85C780.365 1470.7 778.59 1470.8 776.715 1470.16C775.043 1469.58 773.827 1468.57 773.064 1467.12C772.293 1465.67 772.158 1464.21 772.659 1462.75C772.97 1461.85 773.503 1461.11 774.259 1460.53C775.005 1459.95 775.929 1459.59 777.029 1459.45C775.918 1458.66 775.175 1457.68 774.8 1456.52C774.412 1455.36 774.432 1454.16 774.86 1452.92C775.488 1451.09 776.695 1449.77 778.481 1448.96C780.264 1448.15 782.199 1448.11 784.286 1448.83C786.263 1449.51 787.67 1450.66 788.508 1452.27C789.343 1453.9 789.466 1455.77 788.879 1457.87L785.042 1456.55C785.237 1455.44 785.142 1454.53 784.756 1453.82C784.358 1453.12 783.724 1452.61 782.856 1452.32C781.951 1452.01 781.103 1452.04 780.312 1452.42C779.512 1452.79 778.967 1453.4 778.679 1454.24C778.362 1455.17 778.496 1456.09 779.08 1457C779.665 1457.91 780.712 1458.64 782.22 1459.18L781.078 1462.5C780.12 1462.25 779.378 1462.16 778.853 1462.22C778.315 1462.28 777.856 1462.46 777.477 1462.75C777.088 1463.04 776.821 1463.4 776.675 1463.82C776.485 1464.38 776.522 1464.9 776.786 1465.39C777.047 1465.9 777.491 1466.26 778.12 1466.47C778.674 1466.66 779.236 1466.66 779.806 1466.48C780.372 1466.3 780.831 1465.97 781.181 1465.49ZM766.247 1458.65L770.03 1459.95C769.173 1462.11 767.892 1463.6 766.186 1464.42C764.468 1465.24 762.607 1465.31 760.602 1464.62C759.365 1464.2 758.365 1463.56 757.604 1462.71C756.83 1461.87 756.331 1460.86 756.107 1459.67C755.871 1458.5 755.927 1457.4 756.276 1456.39C756.691 1455.18 757.485 1453.99 758.656 1452.84C759.819 1451.68 761.641 1450.46 764.123 1449.18L767.237 1447.56L759.977 1445.06L761.209 1441.48L775.327 1446.32L774.689 1448.18L766.178 1452.44C764.125 1453.46 762.688 1454.35 761.869 1455.12C761.038 1455.88 760.492 1456.65 760.232 1457.4C759.962 1458.19 760.004 1458.93 760.356 1459.61C760.695 1460.31 761.276 1460.8 762.098 1461.08C762.929 1461.37 763.728 1461.29 764.495 1460.87C765.262 1460.44 765.846 1459.7 766.247 1458.65Z" fill="white"/>
<path d="M1218.14 1421.1L1221.66 1419.2C1222.67 1421.29 1222.9 1423.25 1222.34 1425.05C1221.79 1426.88 1220.58 1428.29 1218.71 1429.3C1217.56 1429.92 1216.42 1430.23 1215.27 1430.21C1214.13 1430.21 1213.05 1429.89 1212.03 1429.26C1211 1428.63 1210.23 1427.85 1209.72 1426.91C1209.11 1425.78 1208.78 1424.4 1208.72 1422.75C1208.65 1421.11 1208.99 1418.94 1209.74 1416.25L1210.65 1412.86L1203.9 1416.52L1202.09 1413.18L1215.22 1406.07L1216.15 1407.8L1213.53 1416.95C1212.89 1419.15 1212.57 1420.81 1212.57 1421.93C1212.58 1423.06 1212.77 1423.98 1213.15 1424.68C1213.54 1425.41 1214.11 1425.88 1214.86 1426.09C1215.6 1426.31 1216.35 1426.21 1217.12 1425.8C1217.89 1425.38 1218.38 1424.75 1218.58 1423.89C1218.79 1423.04 1218.64 1422.11 1218.14 1421.1ZM1203.86 1437.34L1199.96 1437.47L1199.79 1429.23C1198.18 1430.1 1196.5 1430.27 1194.76 1429.72C1193.01 1429.18 1191.67 1428.06 1190.75 1426.35C1189.85 1424.7 1189.68 1422.98 1190.21 1421.21C1190.75 1419.44 1191.83 1418.12 1193.46 1417.23C1195.17 1416.31 1196.92 1416.13 1198.7 1416.7C1200.48 1417.28 1201.79 1418.34 1202.62 1419.87C1202.93 1420.46 1203.17 1421.09 1203.31 1421.78C1203.46 1422.47 1203.54 1423.6 1203.57 1425.17L1203.86 1437.34ZM1198.15 1425.71C1198.82 1425.35 1199.25 1424.8 1199.44 1424.06C1199.63 1423.33 1199.53 1422.6 1199.14 1421.87C1198.74 1421.14 1198.17 1420.66 1197.43 1420.42C1196.68 1420.18 1195.99 1420.23 1195.35 1420.57C1194.68 1420.94 1194.24 1421.49 1194.02 1422.24C1193.81 1422.99 1193.9 1423.74 1194.31 1424.49C1194.7 1425.22 1195.26 1425.7 1196 1425.92C1196.73 1426.16 1197.44 1426.09 1198.15 1425.71Z" fill="white"/>
<path d="M697.16 1436.31L691.762 1433.38L702.018 1414.43L705.599 1416.37L697.177 1431.93L701.081 1434.05L697.16 1436.31ZM685.128 1429.79L672.696 1423.07L673.72 1421.17L691.763 1408.27L694.015 1411.4L679.025 1422.11L686.961 1426.41L685.128 1429.79Z" fill="white"/>
<path d="M611.639 1384.49L603.674 1378.29L605.995 1375.3L611.544 1379.62L614.649 1377.06C614.414 1376.97 614.195 1376.86 613.992 1376.74C613.783 1376.63 613.594 1376.5 613.424 1376.37C611.883 1375.17 611.015 1373.65 610.819 1371.8C610.609 1369.96 611.144 1368.21 612.421 1366.57C613.71 1364.91 615.366 1363.96 617.386 1363.7C619.393 1363.44 621.206 1363.94 622.824 1365.2C624.273 1366.33 625.197 1367.71 625.595 1369.34C625.994 1370.98 625.798 1372.64 625.006 1374.32L621.607 1371.68C621.759 1370.94 621.731 1370.27 621.523 1369.66C621.301 1369.06 620.932 1368.55 620.416 1368.15C619.699 1367.59 618.889 1367.38 617.986 1367.5C617.084 1367.63 616.317 1368.1 615.688 1368.91C615.076 1369.69 614.81 1370.52 614.89 1371.39C614.957 1372.26 615.322 1372.95 615.984 1373.46C616.339 1373.74 616.759 1373.92 617.243 1374.02C617.72 1374.1 618.263 1374.1 618.87 1374L621.047 1376.64L611.639 1384.49Z" fill="white"/>
<path d="M555.777 1326.02L558.486 1328.96C556.703 1330.45 554.867 1331.15 552.977 1331.06C551.073 1330.97 549.404 1330.14 547.968 1328.59C547.082 1327.62 546.506 1326.59 546.241 1325.48C545.963 1324.37 546.006 1323.24 546.371 1322.09C546.723 1320.95 547.294 1320.01 548.084 1319.28C549.025 1318.41 550.286 1317.75 551.867 1317.29C553.442 1316.82 555.624 1316.62 558.413 1316.68L561.926 1316.73L556.727 1311.09L559.518 1308.52L569.628 1319.5L568.184 1320.83L558.669 1320.53C556.378 1320.45 554.691 1320.55 553.608 1320.83C552.511 1321.11 551.668 1321.52 551.079 1322.06C550.468 1322.62 550.154 1323.29 550.136 1324.06C550.104 1324.83 550.382 1325.54 550.971 1326.18C551.566 1326.83 552.303 1327.14 553.181 1327.13C554.059 1327.12 554.925 1326.75 555.777 1326.02ZM544.388 1313.64L547.097 1316.59C545.314 1318.08 543.478 1318.78 541.588 1318.69C539.684 1318.6 538.015 1317.77 536.579 1316.21C535.693 1315.25 535.117 1314.21 534.852 1313.1C534.573 1311.99 534.617 1310.87 534.982 1309.72C535.334 1308.57 535.905 1307.64 536.695 1306.91C537.636 1306.04 538.897 1305.38 540.478 1304.92C542.053 1304.45 544.235 1304.25 547.024 1304.31L550.536 1304.36L545.338 1298.71L548.129 1296.14L558.239 1307.13L556.794 1308.46L547.28 1308.15C544.989 1308.07 543.301 1308.17 542.219 1308.45C541.122 1308.73 540.279 1309.14 539.69 1309.69C539.079 1310.25 538.765 1310.92 538.747 1311.69C538.715 1312.46 538.993 1313.17 539.582 1313.81C540.177 1314.45 540.914 1314.77 541.792 1314.76C542.67 1314.75 543.535 1314.38 544.388 1313.64Z" fill="white"/>
<path d="M499.714 1254.42L501.869 1257.71C500.424 1258.41 499.041 1258.63 497.719 1258.38C495.875 1258.02 494.411 1257.01 493.326 1255.35C492.359 1253.87 492.02 1252.33 492.309 1250.71C492.592 1249.09 493.379 1247.86 494.671 1247.02C495.472 1246.5 496.348 1246.24 497.299 1246.25C498.244 1246.25 499.193 1246.53 500.147 1247.1C499.758 1245.79 499.772 1244.56 500.189 1243.41C500.593 1242.26 501.346 1241.33 502.45 1240.61C504.069 1239.55 505.832 1239.25 507.74 1239.7C509.64 1240.17 511.193 1241.32 512.401 1243.17C513.544 1244.92 513.949 1246.69 513.615 1248.48C513.273 1250.28 512.226 1251.83 510.472 1253.13L508.253 1249.73C509.088 1248.97 509.572 1248.2 509.704 1247.4C509.823 1246.6 509.631 1245.81 509.129 1245.04C508.605 1244.24 507.915 1243.75 507.058 1243.56C506.196 1243.37 505.393 1243.51 504.649 1244C503.831 1244.53 503.373 1245.34 503.274 1246.42C503.174 1247.5 503.554 1248.72 504.414 1250.07L501.471 1251.99C500.866 1251.21 500.339 1250.68 499.889 1250.4C499.426 1250.12 498.954 1249.98 498.475 1249.98C497.99 1249.97 497.56 1250.08 497.184 1250.33C496.693 1250.65 496.401 1251.09 496.306 1251.64C496.204 1252.19 496.334 1252.75 496.697 1253.31C497.018 1253.8 497.46 1254.14 498.024 1254.35C498.58 1254.56 499.143 1254.58 499.714 1254.42ZM483.295 1240L481.051 1236.57L492.664 1228.98L491.615 1227.37L494.791 1225.3L495.84 1226.9L499.544 1224.48L501.739 1227.84L498.036 1230.26L503.18 1238.14L500.004 1240.21L483.295 1240ZM494.86 1232.34L488.814 1236.29L497.552 1236.46L494.86 1232.34Z" fill="white"/>
<path d="M1274.95 1364.78L1278.77 1364L1280.29 1372.09C1281.74 1370.97 1283.36 1370.53 1285.18 1370.78C1286.99 1371.03 1288.49 1371.92 1289.69 1373.45C1290.84 1374.94 1291.31 1376.6 1291.07 1378.42C1290.83 1380.27 1289.98 1381.76 1288.52 1382.9C1286.99 1384.09 1285.29 1384.55 1283.44 1384.27C1281.59 1384 1280.12 1383.18 1279.04 1381.79C1278.64 1381.27 1278.31 1380.67 1278.05 1380.02C1277.8 1379.37 1277.53 1378.28 1277.24 1376.73L1274.95 1364.78ZM1282.49 1375.3C1281.89 1375.77 1281.56 1376.38 1281.49 1377.14C1281.43 1377.89 1281.64 1378.6 1282.15 1379.24C1282.66 1379.91 1283.31 1380.29 1284.09 1380.4C1284.86 1380.52 1285.53 1380.36 1286.1 1379.91C1286.7 1379.45 1287.05 1378.82 1287.13 1378.04C1287.22 1377.26 1287.01 1376.54 1286.49 1375.88C1285.98 1375.23 1285.35 1374.84 1284.59 1374.73C1283.82 1374.62 1283.13 1374.81 1282.49 1375.3Z" fill="white"/>
<path d="M1357.18 1308.97L1359.88 1306.03C1361.52 1307.68 1362.37 1309.45 1362.44 1311.35C1362.5 1313.25 1361.82 1314.98 1360.38 1316.54C1359.5 1317.5 1358.51 1318.16 1357.43 1318.52C1356.34 1318.89 1355.21 1318.94 1354.04 1318.67C1352.87 1318.41 1351.89 1317.92 1351.1 1317.2C1350.16 1316.33 1349.39 1315.13 1348.8 1313.59C1348.21 1312.06 1347.83 1309.9 1347.66 1307.12L1347.42 1303.61L1342.22 1309.26L1339.43 1306.69L1349.54 1295.71L1350.98 1297.04L1351.47 1306.54C1351.58 1308.83 1351.81 1310.51 1352.18 1311.56C1352.55 1312.63 1353.03 1313.44 1353.62 1313.98C1354.23 1314.54 1354.92 1314.8 1355.69 1314.76C1356.47 1314.72 1357.15 1314.39 1357.74 1313.75C1358.33 1313.1 1358.59 1312.34 1358.5 1311.47C1358.42 1310.59 1357.98 1309.76 1357.18 1308.97ZM1338.49 1324.94C1337.37 1325.24 1336.27 1325.25 1335.19 1324.97C1334.1 1324.7 1333.14 1324.18 1332.3 1323.4C1331.39 1322.56 1330.76 1321.56 1330.4 1320.38C1330.04 1319.22 1330.02 1318.07 1330.33 1316.93C1330.65 1315.81 1331.36 1314.65 1332.46 1313.46C1333.64 1312.18 1334.76 1311.33 1335.83 1310.92C1336.9 1310.52 1338.03 1310.44 1339.21 1310.69C1340.39 1310.94 1341.47 1311.52 1342.43 1312.4C1343.26 1313.17 1343.86 1314.05 1344.21 1315.03C1344.56 1316.03 1344.67 1317.15 1344.54 1318.37C1345.46 1318.34 1346.3 1318.45 1347.07 1318.7C1347.83 1318.96 1348.51 1319.38 1349.12 1319.93C1349.94 1320.69 1350.51 1321.58 1350.83 1322.6C1351.14 1323.63 1351.15 1324.67 1350.86 1325.74C1350.58 1326.81 1350.01 1327.81 1349.14 1328.75C1348.29 1329.68 1347.35 1330.32 1346.32 1330.67C1345.29 1331.03 1344.24 1331.08 1343.16 1330.83C1342.09 1330.6 1341.15 1330.12 1340.34 1329.38C1339.78 1328.85 1339.35 1328.26 1339.06 1327.59C1338.77 1326.94 1338.58 1326.06 1338.49 1324.94ZM1346.32 1325.98C1346.78 1325.48 1346.99 1324.92 1346.96 1324.29C1346.92 1323.68 1346.65 1323.14 1346.14 1322.67C1345.63 1322.2 1345.05 1321.97 1344.39 1321.99C1343.74 1322.01 1343.18 1322.27 1342.73 1322.77C1342.26 1323.28 1342.04 1323.85 1342.08 1324.48C1342.11 1325.12 1342.4 1325.69 1342.94 1326.19C1343.45 1326.66 1344.01 1326.87 1344.64 1326.83C1345.26 1326.8 1345.82 1326.52 1346.32 1325.98ZM1339.85 1320.24C1340.52 1319.52 1340.86 1318.7 1340.87 1317.79C1340.89 1316.9 1340.59 1316.16 1339.98 1315.6C1339.34 1315.01 1338.59 1314.75 1337.71 1314.8C1336.84 1314.87 1336.06 1315.28 1335.36 1316.04C1334.65 1316.81 1334.29 1317.61 1334.28 1318.44C1334.28 1319.28 1334.6 1320.01 1335.25 1320.61C1335.91 1321.21 1336.67 1321.48 1337.55 1321.4C1338.43 1321.34 1339.2 1320.95 1339.85 1320.24Z" fill="white"/>
<path d="M1409.16 1248.25C1408.3 1249.57 1407.24 1250.49 1405.97 1251.02C1404.7 1251.55 1403.23 1251.64 1401.56 1251.28C1399.9 1250.94 1397.88 1250 1395.51 1248.45C1393.11 1246.88 1391.42 1245.4 1390.44 1244C1389.45 1242.6 1388.93 1241.25 1388.88 1239.95C1388.84 1238.66 1389.26 1237.33 1390.15 1235.97C1391.04 1234.61 1392.1 1233.68 1393.33 1233.17C1394.56 1232.65 1395.99 1232.56 1397.62 1232.87C1399.24 1233.19 1401.24 1234.12 1403.61 1235.67C1406.92 1237.83 1408.99 1239.91 1409.81 1241.9C1410.7 1244.11 1410.49 1246.22 1409.16 1248.25ZM1405.84 1246.21C1406.22 1245.63 1406.37 1244.99 1406.29 1244.29C1406.22 1243.6 1405.8 1242.84 1405.05 1242.01C1404.3 1241.18 1403.05 1240.2 1401.3 1239.05C1399.02 1237.56 1397.26 1236.8 1396.03 1236.77C1394.81 1236.75 1393.91 1237.18 1393.35 1238.04C1392.8 1238.88 1392.78 1239.81 1393.29 1240.84C1393.9 1242.09 1395.37 1243.47 1397.71 1245C1400.08 1246.55 1401.89 1247.35 1403.14 1247.4C1404.39 1247.45 1405.29 1247.06 1405.84 1246.21Z" fill="white"/>
<path d="M1446.89 1163.49L1448.49 1159.82C1450.58 1160.86 1451.96 1162.26 1452.63 1164.02C1453.31 1165.8 1453.23 1167.66 1452.38 1169.61C1451.85 1170.8 1451.13 1171.75 1450.22 1172.44C1449.32 1173.14 1448.27 1173.55 1447.07 1173.68C1445.88 1173.82 1444.79 1173.67 1443.81 1173.24C1442.64 1172.72 1441.52 1171.83 1440.47 1170.57C1439.41 1169.32 1438.34 1167.4 1437.28 1164.82L1435.92 1161.58L1432.83 1168.61L1429.36 1167.09L1435.35 1153.42L1437.15 1154.21L1440.7 1163.04C1441.54 1165.17 1442.31 1166.68 1443 1167.56C1443.7 1168.45 1444.42 1169.06 1445.15 1169.38C1445.91 1169.71 1446.65 1169.73 1447.36 1169.44C1448.08 1169.16 1448.62 1168.62 1448.97 1167.82C1449.32 1167.02 1449.32 1166.21 1448.95 1165.42C1448.59 1164.62 1447.9 1163.97 1446.89 1163.49Z" fill="white"/>
<path d="M450.019 1180.07L447.554 1174.44L467.287 1165.79L468.923 1169.52L452.717 1176.63L454.5 1180.69L450.019 1180.07ZM443.235 1164.6L439.182 1155.36L442.643 1153.84L445.467 1160.28L449.415 1159.5C449.254 1159.31 449.114 1159.11 448.993 1158.91C448.863 1158.71 448.755 1158.51 448.668 1158.31C447.884 1156.52 447.845 1154.77 448.553 1153.05C449.248 1151.33 450.547 1150.05 452.452 1149.22C454.375 1148.37 456.287 1148.32 458.187 1149.05C460.074 1149.78 461.43 1151.08 462.253 1152.96C462.991 1154.64 463.146 1156.3 462.718 1157.93C462.291 1159.55 461.328 1160.92 459.829 1162.02L458.099 1158.08C458.583 1157.5 458.878 1156.9 458.984 1156.27C459.078 1155.63 458.993 1155.01 458.73 1154.41C458.365 1153.58 457.756 1153 456.902 1152.69C456.048 1152.37 455.151 1152.41 454.212 1152.83C453.3 1153.23 452.673 1153.83 452.33 1154.63C451.976 1155.42 451.967 1156.2 452.304 1156.97C452.484 1157.39 452.766 1157.75 453.148 1158.06C453.526 1158.36 454.005 1158.62 454.585 1158.82L455.243 1162.18L443.235 1164.6Z" fill="white"/>
<path d="M408.98 821.364L410.487 815.414L431.376 820.704L430.376 824.651L413.222 820.307L412.133 824.61L408.98 821.364ZM418.45 805.629L417.483 809.449C415.99 808.859 414.89 807.991 414.183 806.845C413.198 805.246 412.949 803.485 413.435 801.564C413.869 799.85 414.777 798.554 416.158 797.674C417.542 796.786 418.981 796.531 420.477 796.91C421.405 797.145 422.187 797.615 422.825 798.32C423.464 799.016 423.899 799.907 424.127 800.992C424.827 799.82 425.741 798.998 426.867 798.528C427.986 798.046 429.185 797.966 430.463 798.29C432.338 798.765 433.753 799.858 434.709 801.571C435.656 803.282 435.859 805.207 435.317 807.347C434.804 809.373 433.775 810.87 432.23 811.839C430.676 812.805 428.828 813.082 426.686 812.671L427.682 808.737C428.804 808.84 429.703 808.67 430.38 808.227C431.049 807.772 431.496 807.099 431.722 806.209C431.957 805.282 431.853 804.439 431.41 803.682C430.969 802.916 430.318 802.424 429.457 802.206C428.51 801.966 427.606 802.175 426.744 802.833C425.882 803.492 425.245 804.595 424.833 806.142L421.425 805.279C421.591 804.304 421.624 803.557 421.524 803.038C421.417 802.507 421.201 802.064 420.878 801.711C420.557 801.347 420.179 801.11 419.743 801C419.175 800.856 418.656 800.936 418.186 801.241C417.707 801.542 417.386 802.015 417.223 802.659C417.079 803.227 417.124 803.787 417.356 804.34C417.58 804.89 417.944 805.32 418.45 805.629Z" fill="white"/>
<path d="M1480.72 810.156L1481.73 814.132L1468.28 817.538L1468.75 819.398L1465.07 820.329L1464.6 818.469L1460.31 819.555L1459.33 815.664L1463.62 814.578L1461.31 805.462L1464.99 804.53L1480.72 810.156ZM1467.29 813.647L1474.3 811.874L1466.09 808.875L1467.29 813.647Z" fill="white"/>
<path d="M401.218 910.53L400.893 914.457C399.324 914.122 398.096 913.447 397.21 912.432C395.975 911.017 395.439 909.321 395.603 907.346C395.749 905.584 396.431 904.156 397.648 903.062C398.867 901.957 400.245 901.469 401.782 901.596C402.736 901.675 403.585 902.01 404.33 902.601C405.076 903.182 405.651 903.989 406.055 905.022C406.552 903.75 407.318 902.79 408.352 902.141C409.376 901.481 410.546 901.205 411.86 901.314C413.787 901.474 415.363 902.32 416.588 903.852C417.804 905.383 418.32 907.249 418.138 909.448C417.965 911.531 417.197 913.177 415.833 914.387C414.459 915.596 412.681 916.174 410.5 916.121L410.835 912.077C411.959 911.994 412.819 911.678 413.413 911.129C413.998 910.57 414.329 909.833 414.404 908.918C414.483 907.965 414.242 907.151 413.681 906.477C413.12 905.794 412.397 905.415 411.511 905.342C410.538 905.261 409.68 905.617 408.939 906.408C408.197 907.199 407.75 908.392 407.599 909.986L404.095 909.696C404.099 908.706 404.008 907.964 403.824 907.468C403.631 906.963 403.345 906.562 402.968 906.266C402.592 905.96 402.18 905.789 401.732 905.752C401.148 905.703 400.649 905.868 400.236 906.245C399.813 906.622 399.574 907.141 399.519 907.803C399.471 908.387 399.607 908.932 399.927 909.439C400.238 909.944 400.668 910.308 401.218 910.53ZM397.016 890.295L399.041 886.964L406.029 891.321C406.18 889.501 406.96 888.008 408.37 886.841C409.78 885.674 411.453 885.171 413.39 885.331C415.258 885.486 416.79 886.274 417.986 887.696C419.172 889.108 419.688 890.738 419.535 892.587C419.375 894.524 418.569 896.084 417.119 897.267C415.66 898.439 414.059 898.954 412.317 898.809C411.655 898.754 410.997 898.602 410.341 898.352C409.687 898.091 408.693 897.544 407.361 896.708L397.016 890.295ZM409.878 891.875C409.815 892.634 410.04 893.295 410.552 893.856C411.054 894.417 411.719 894.732 412.546 894.801C413.374 894.869 414.092 894.659 414.7 894.171C415.31 893.673 415.645 893.063 415.704 892.343C415.767 891.584 415.544 890.909 415.034 890.318C414.525 889.727 413.847 889.397 413 889.326C412.173 889.258 411.464 889.469 410.875 889.959C410.277 890.438 409.944 891.077 409.878 891.875Z" fill="white"/>
<path d="M1489.25 888.023L1488.91 884.037C1491.24 883.952 1493.12 884.526 1494.55 885.76C1496 887.002 1496.81 888.679 1496.99 890.791C1497.09 892.095 1496.91 893.266 1496.44 894.305C1495.98 895.353 1495.25 896.217 1494.26 896.897C1493.28 897.586 1492.25 897.974 1491.18 898.063C1489.91 898.169 1488.5 897.918 1486.97 897.31C1485.44 896.711 1483.6 895.532 1481.43 893.771L1478.69 891.573L1479.33 899.222L1475.55 899.536L1474.31 884.66L1476.27 884.498L1483.59 890.579C1485.35 892.05 1486.74 893.007 1487.77 893.451C1488.81 893.904 1489.72 894.098 1490.52 894.031C1491.35 893.963 1492.01 893.629 1492.5 893.03C1493 892.44 1493.21 891.711 1493.14 890.845C1493.07 889.969 1492.68 889.267 1491.98 888.737C1491.28 888.207 1490.37 887.969 1489.25 888.023ZM1492.29 905.114L1491.97 901.187C1493.57 901.26 1494.89 901.724 1495.93 902.578C1497.39 903.771 1498.19 905.355 1498.36 907.331C1498.5 909.092 1498.07 910.613 1497.05 911.893C1496.03 913.183 1494.75 913.892 1493.21 914.019C1492.26 914.099 1491.36 913.908 1490.53 913.448C1489.7 912.997 1489 912.296 1488.43 911.344C1488.15 912.68 1487.55 913.754 1486.64 914.564C1485.74 915.384 1484.63 915.848 1483.32 915.957C1481.39 916.117 1479.69 915.542 1478.23 914.232C1476.78 912.922 1475.97 911.167 1475.78 908.967C1475.61 906.885 1476.1 905.134 1477.24 903.716C1478.4 902.298 1480.06 901.435 1482.22 901.129L1482.55 905.172C1481.46 905.44 1480.66 905.893 1480.17 906.531C1479.68 907.179 1479.48 907.961 1479.55 908.875C1479.63 909.829 1480 910.592 1480.67 911.164C1481.33 911.746 1482.11 912 1483 911.927C1483.97 911.846 1484.76 911.354 1485.36 910.452C1485.96 909.55 1486.2 908.299 1486.09 906.702L1489.59 906.411C1489.75 907.388 1489.96 908.105 1490.23 908.563C1490.5 909.031 1490.85 909.379 1491.27 909.609C1491.69 909.848 1492.13 909.949 1492.57 909.912C1493.16 909.864 1493.62 909.62 1493.97 909.179C1494.32 908.738 1494.47 908.187 1494.42 907.525C1494.37 906.941 1494.15 906.426 1493.75 905.979C1493.36 905.531 1492.87 905.243 1492.29 905.114Z" fill="white"/>
<path d="M404.714 1000.39L405.044 1004.37C402.719 1004.46 400.839 1003.88 399.404 1002.65C397.958 1001.41 397.148 999.729 396.973 997.617C396.865 996.313 397.047 995.141 397.52 994.102C397.982 993.055 398.709 992.191 399.701 991.511C400.683 990.822 401.709 990.433 402.779 990.345C404.054 990.239 405.457 990.49 406.987 991.099C408.516 991.697 410.363 992.877 412.527 994.637L415.267 996.836L414.633 989.186L418.414 988.873L419.647 1003.75L417.691 1003.91L410.367 997.83C408.608 996.359 407.216 995.401 406.189 994.957C405.152 994.504 404.235 994.31 403.437 994.377C402.61 994.445 401.951 994.779 401.462 995.378C400.962 995.968 400.748 996.696 400.82 997.563C400.892 998.438 401.279 999.141 401.979 999.671C402.68 1000.2 403.591 1000.44 404.714 1000.39ZM395.477 979.558L395.138 975.471L408.963 974.325L408.804 972.413L412.585 972.1L412.744 974.012L417.153 973.647L417.484 977.647L413.075 978.012L413.852 987.384L410.071 987.697L395.477 979.558ZM409.294 978.325L402.097 978.922L409.701 983.23L409.294 978.325Z" fill="white"/>
<path d="M1492.74 977.907L1493.07 973.98C1494.64 974.316 1495.86 974.991 1496.75 976.005C1497.99 977.42 1498.52 979.116 1498.36 981.092C1498.21 982.853 1497.53 984.281 1496.31 985.376C1495.09 986.48 1493.72 986.968 1492.18 986.841C1491.22 986.762 1490.37 986.427 1489.63 985.836C1488.88 985.255 1488.31 984.448 1487.91 983.415C1487.41 984.686 1486.64 985.647 1485.61 986.296C1484.58 986.956 1483.41 987.231 1482.1 987.122C1480.17 986.963 1478.6 986.117 1477.37 984.584C1476.16 983.053 1475.64 981.187 1475.82 978.988C1475.99 976.905 1476.76 975.259 1478.13 974.049C1479.5 972.84 1481.28 972.263 1483.46 972.316L1483.12 976.36C1482 976.443 1481.14 976.759 1480.55 977.307C1479.96 977.866 1479.63 978.603 1479.56 979.518C1479.48 980.472 1479.72 981.286 1480.28 981.959C1480.84 982.643 1481.56 983.021 1482.45 983.095C1483.42 983.175 1484.28 982.82 1485.02 982.029C1485.76 981.238 1486.21 980.045 1486.36 978.451L1489.87 978.741C1489.86 979.731 1489.95 980.473 1490.14 980.969C1490.33 981.475 1490.61 981.875 1490.99 982.171C1491.37 982.477 1491.78 982.648 1492.23 982.685C1492.81 982.734 1493.31 982.569 1493.72 982.192C1494.15 981.816 1494.39 981.296 1494.44 980.635C1494.49 980.051 1494.35 979.505 1494.03 978.999C1493.72 978.493 1493.29 978.129 1492.74 977.907ZM1496.71 994.419L1495.87 1004.48L1492.11 1004.16L1492.69 997.158L1488.85 995.957C1488.9 996.206 1488.93 996.449 1488.94 996.685C1488.96 996.922 1488.96 997.147 1488.94 997.361C1488.78 999.308 1487.98 1000.87 1486.54 1002.04C1485.11 1003.23 1483.35 1003.73 1481.28 1003.56C1479.19 1003.39 1477.48 1002.53 1476.16 1000.98C1474.85 999.436 1474.28 997.645 1474.44 995.601C1474.6 993.771 1475.25 992.243 1476.4 991.015C1477.55 989.788 1479.05 989.045 1480.89 988.786L1480.53 993.078C1479.83 993.353 1479.29 993.744 1478.89 994.25C1478.51 994.767 1478.29 995.351 1478.23 996.003C1478.16 996.908 1478.42 997.704 1479.02 998.391C1479.62 999.077 1480.43 999.463 1481.45 999.548C1482.44 999.63 1483.28 999.401 1483.96 998.86C1484.65 998.329 1485.03 997.645 1485.1 996.808C1485.14 996.36 1485.07 995.908 1484.88 995.452C1484.69 995.005 1484.39 994.554 1483.98 994.098L1485 990.832L1496.71 994.419Z" fill="white"/>
<path d="M416.681 1083.22L417.649 1087.04C416.055 1087.23 414.675 1086.99 413.507 1086.32C411.88 1085.38 410.823 1083.95 410.336 1082.03C409.902 1080.32 410.083 1078.74 410.879 1077.31C411.673 1075.87 412.818 1074.96 414.314 1074.58C415.241 1074.35 416.154 1074.39 417.05 1074.71C417.944 1075.02 418.75 1075.59 419.467 1076.44C419.525 1075.07 419.937 1073.92 420.704 1072.97C421.459 1072.01 422.475 1071.37 423.753 1071.05C425.628 1070.57 427.393 1070.86 429.05 1071.91C430.697 1072.96 431.791 1074.56 432.333 1076.7C432.846 1078.73 432.654 1080.53 431.756 1082.12C430.849 1083.71 429.355 1084.83 427.276 1085.49L426.279 1081.56C427.315 1081.11 428.025 1080.54 428.409 1079.82C428.781 1079.11 428.855 1078.3 428.629 1077.41C428.394 1076.48 427.902 1075.79 427.152 1075.34C426.4 1074.87 425.593 1074.75 424.732 1074.97C423.785 1075.21 423.089 1075.82 422.645 1076.81C422.2 1077.8 422.165 1079.07 422.539 1080.63L419.131 1081.49C418.813 1080.56 418.487 1079.88 418.151 1079.48C417.804 1079.06 417.404 1078.77 416.952 1078.62C416.496 1078.45 416.051 1078.42 415.615 1078.53C415.047 1078.67 414.629 1078.99 414.361 1079.48C414.083 1079.98 414.025 1080.55 414.188 1081.19C414.332 1081.76 414.638 1082.23 415.106 1082.6C415.564 1082.98 416.089 1083.19 416.681 1083.22Z" fill="white"/>
<path d="M1484.81 1070.38L1483.3 1076.33L1462.41 1071.04L1463.41 1067.09L1480.57 1071.43L1481.66 1067.13L1484.81 1070.38ZM1479.98 1091.65L1478.97 1095.63L1465.52 1092.22L1465.05 1094.09L1461.38 1093.15L1461.85 1091.29L1457.56 1090.21L1458.54 1086.32L1462.83 1087.4L1465.14 1078.29L1468.82 1079.22L1479.98 1091.65ZM1466.51 1088.33L1473.51 1090.11L1467.72 1083.56L1466.51 1088.33Z" fill="white"/>
<circle cx="946" cy="946" r="500" stroke="#F8E7E7" stroke-width="10"/>
<mask id="mask0_41_141" style="mask-type:alpha" maskUnits="userSpaceOnUse" x="538" y="537" width="817" height="817">
<circle cx="946" cy="945.999" r="403" fill="#090C11" stroke="#F8E7E7" stroke-width="10"/>
</mask>
<g mask="url(#mask0_41_141)">
<g filter="url(#filter1_d_41_141)">
<circle cx="946" cy="945.999" r="408" fill="#090C11"/>
<circle cx="946" cy="945.999" r="403" stroke="#F8E7E7" stroke-width="10"/>
</g>
<path d="M1318.46 372.46L964.036 933.605L1614.92 803.816L967.518 949.988L1519.54 1318.46L958.396 964.035L1088.18 1614.92L942.013 967.517L573.54 1519.54L927.966 958.395L277.077 1088.18L924.483 942.012L372.461 573.539L933.605 927.965L803.816 277.077L949.988 924.482L1318.46 372.46Z" fill="#F8E7E7"/>
<g filter="url(#filter2_d_41_141)">
<circle cx="946" cy="945.999" r="100.803" transform="rotate(9 946 945.999)" fill="#F8E7E7"/>
</g>
<g filter="url(#filter3_d_41_141)">
<path d="M857.603 824.331L948.588 929.66L1067.67 857.602L962.339 948.587L1034.4 1067.67L943.412 962.339L824.332 1034.4L929.661 943.412L857.603 824.331Z" fill="#D9D9D9"/>
<path d="M880.396 839.822C892.853 856.968 899.571 873.325 895.4 876.355C891.23 879.385 877.75 867.942 865.292 850.795C852.835 833.649 846.117 817.293 850.287 814.262C854.458 811.232 867.938 822.676 880.396 839.822Z" fill="#D9D9D9"/>
<path d="M1041.2 865.292C1058.35 852.834 1074.71 846.116 1077.74 850.287C1080.77 854.458 1069.32 867.938 1052.18 880.395C1035.03 892.853 1018.67 899.571 1015.64 895.4C1012.61 891.229 1024.06 877.749 1041.2 865.292Z" fill="#D9D9D9"/>
<path d="M839.823 1011.6C856.969 999.146 873.325 992.428 876.356 996.599C879.386 1000.77 867.942 1014.25 850.796 1026.71C833.65 1039.17 817.293 1045.88 814.263 1041.71C811.233 1037.54 822.676 1024.06 839.823 1011.6Z" fill="#D9D9D9"/>
<path d="M1026.71 1041.2C1039.17 1058.35 1045.88 1074.71 1041.71 1077.74C1037.54 1080.77 1024.06 1069.32 1011.6 1052.18C999.147 1035.03 992.429 1018.67 996.6 1015.64C1000.77 1012.61 1014.25 1024.06 1026.71 1041.2Z" fill="#D9D9D9"/>
</g>
<g filter="url(#filter4_d_41_141)">
<path d="M981.177 723.899L966.012 931.46L1168.1 981.176L960.539 966.011L910.823 1168.1L925.989 960.538L723.9 910.822L931.461 925.988L981.177 723.899Z" fill="#D9D9D9"/>
<path d="M988.898 764.375C983.94 795.676 973.75 820.072 966.136 818.866C958.522 817.66 956.369 791.309 961.327 760.009C966.284 728.708 976.475 704.312 984.088 705.518C991.702 706.724 993.855 733.075 988.898 764.375Z" fill="#D9D9D9"/>
<path d="M1131.99 961.326C1163.29 966.283 1187.69 976.474 1186.48 984.088C1185.28 991.701 1158.92 993.854 1127.62 988.897C1096.32 983.939 1071.93 973.749 1073.13 966.135C1074.34 958.522 1100.69 956.368 1131.99 961.326Z" fill="#D9D9D9"/>
<path d="M764.376 903.101C795.676 908.059 820.073 918.25 818.867 925.863C817.661 933.477 791.31 935.63 760.009 930.673C728.709 925.715 704.313 915.524 705.519 907.911C706.725 900.297 733.076 898.144 764.376 903.101Z" fill="#D9D9D9"/>
<path d="M930.673 1131.99C925.716 1163.29 915.525 1187.69 907.912 1186.48C900.298 1185.27 898.145 1158.92 903.102 1127.62C908.06 1096.32 918.251 1071.93 925.864 1073.13C933.478 1074.34 935.631 1100.69 930.673 1131.99Z" fill="#D9D9D9"/>
</g>
</g>
<defs>
<filter id="filter0_d_41_141" x="187" y="186.999" width="1518" height="1518" filterUnits="userSpaceOnUse" color-interpolation-filters="sRGB">
<feFlood flood-opacity="0" result="BackgroundImageFix"/>
<feColorMatrix in="SourceAlpha" type="matrix" values="0 0 0 0 0 0 0 0 0 0 0 0 0 0 0 0 0 0 127 0" result="hardAlpha"/>
<feMorphology radius="20" operator="dilate" in="SourceAlpha" result="effect1_dropShadow_41_141"/>
<feOffset/>
<feGaussianBlur stdDeviation="25"/>
<feComposite in2="hardAlpha" operator="out"/>
<feColorMatrix type="matrix" values="0 0 0 0 0 0 0 0 0 0 0 0 0 0 0 0 0 0 0.25 0"/>
<feBlend mode="normal" in2="BackgroundImageFix" result="effect1_dropShadow_41_141"/>
<feBlend mode="normal" in="SourceGraphic" in2="effect1_dropShadow_41_141" result="shape"/>
</filter>
<filter id="filter1_d_41_141" x="468" y="467.999" width="956" height="956" filterUnits="userSpaceOnUse" color-interpolation-filters="sRGB">
<feFlood flood-opacity="0" result="BackgroundImageFix"/>
<feColorMatrix in="SourceAlpha" type="matrix" values="0 0 0 0 0 0 0 0 0 0 0 0 0 0 0 0 0 0 127 0" result="hardAlpha"/>
<feMorphology radius="20" operator="dilate" in="SourceAlpha" result="effect1_dropShadow_41_141"/>
<feOffset/>
<feGaussianBlur stdDeviation="25"/>
<feComposite in2="hardAlpha" operator="out"/>
<feColorMatrix type="matrix" values="0 0 0 0 0 0 0 0 0 0 0 0 0 0 0 0 0 0 0.25 0"/>
<feBlend mode="normal" in2="BackgroundImageFix" result="effect1_dropShadow_41_141"/>
<feBlend mode="normal" in="SourceGraphic" in2="effect1_dropShadow_41_141" result="shape"/>
</filter>
<filter id="filter2_d_41_141" x="775.182" y="775.181" width="341.636" height="341.636" filterUnits="userSpaceOnUse" color-interpolation-filters="sRGB">
<feFlood flood-opacity="0" result="BackgroundImageFix"/>
<feColorMatrix in="SourceAlpha" type="matrix" values="0 0 0 0 0 0 0 0 0 0 0 0 0 0 0 0 0 0 127 0" result="hardAlpha"/>
<feMorphology radius="20" operator="dilate" in="SourceAlpha" result="effect1_dropShadow_41_141"/>
<feOffset/>
<feGaussianBlur stdDeviation="25"/>
<feComposite in2="hardAlpha" operator="out"/>
<feColorMatrix type="matrix" values="0 0 0 0 0 0 0 0 0 0 0 0 0 0 0 0 0 0 0.25 0"/>
<feBlend mode="normal" in2="BackgroundImageFix" result="effect1_dropShadow_41_141"/>
<feBlend mode="normal" in="SourceGraphic" in2="effect1_dropShadow_41_141" result="shape"/>
</filter>
<filter id="filter3_d_41_141" x="806.677" y="806.676" width="278.647" height="278.647" filterUnits="userSpaceOnUse" color-interpolation-filters="sRGB">
<feFlood flood-opacity="0" result="BackgroundImageFix"/>
<feColorMatrix in="SourceAlpha" type="matrix" values="0 0 0 0 0 0 0 0 0 0 0 0 0 0 0 0 0 0 127 0" result="hardAlpha"/>
<feOffset/>
<feGaussianBlur stdDeviation="3.55"/>
<feComposite in2="hardAlpha" operator="out"/>
<feColorMatrix type="matrix" values="0 0 0 0 0 0 0 0 0 0 0 0 0 0 0 0 0 0 0.25 0"/>
<feBlend mode="normal" in2="BackgroundImageFix" result="effect1_dropShadow_41_141"/>
<feBlend mode="normal" in="SourceGraphic" in2="effect1_dropShadow_41_141" result="shape"/>
</filter>
<filter id="filter4_d_41_141" x="698.376" y="698.375" width="495.248" height="495.248" filterUnits="userSpaceOnUse" color-interpolation-filters="sRGB">
<feFlood flood-opacity="0" result="BackgroundImageFix"/>
<feColorMatrix in="SourceAlpha" type="matrix" values="0 0 0 0 0 0 0 0 0 0 0 0 0 0 0 0 0 0 127 0" result="hardAlpha"/>
<feOffset/>
<feGaussianBlur stdDeviation="3.55"/>
<feComposite in2="hardAlpha" operator="out"/>
<feColorMatrix type="matrix" values="0 0 0 0 0 0 0 0 0 0 0 0 0 0 0 0 0 0 0.25 0"/>
<feBlend mode="normal" in2="BackgroundImageFix" result="effect1_dropShadow_41_141"/>
<feBlend mode="normal" in="SourceGraphic" in2="effect1_dropShadow_41_141" result="shape"/>
</filter>
</defs>
</svg>
