<svg width="296" height="2664" viewBox="0 0 296 2664" fill="none" xmlns="http://www.w3.org/2000/svg">
<mask id="path-1-inside-1_101_15" fill="white">
<path d="M0 0H296V296H0V0Z"/>
</mask>
<path d="M0 0H296V296H0V0Z" fill="#D9D9D9"/>
<path d="M0 5H296V-5H0V5ZM296 290H0V302H296V290Z" fill="black" mask="url(#path-1-inside-1_101_15)"/>
<mask id="path-3-inside-2_101_15" fill="white">
<path d="M0 296H296V592H0V296Z"/>
</mask>
<path d="M0 296H296V592H0V296Z" fill="#D9D9D9"/>
<path d="M0 301H296V291H0V301ZM296 586H0V598H296V586Z" fill="black" mask="url(#path-3-inside-2_101_15)"/>
<mask id="path-5-inside-3_101_15" fill="white">
<path d="M0 592H296V888H0V592Z"/>
</mask>
<path d="M0 592H296V888H0V592Z" fill="#D9D9D9"/>
<path d="M0 597H296V587H0V597ZM296 882H0V894H296V882Z" fill="black" mask="url(#path-5-inside-3_101_15)"/>
<mask id="path-7-inside-4_101_15" fill="white">
<path d="M0 888H296V1184H0V888Z"/>
</mask>
<path d="M0 888H296V1184H0V888Z" fill="#D9D9D9"/>
<path d="M0 893H296V883H0V893ZM296 1178H0V1190H296V1178Z" fill="black" mask="url(#path-7-inside-4_101_15)"/>
<mask id="path-9-inside-5_101_15" fill="white">
<path d="M0 1184H296V1480H0V1184Z"/>
</mask>
<path d="M0 1184H296V1480H0V1184Z" fill="#D9D9D9"/>
<path d="M0 1189H296V1179H0V1189ZM296 1474H0V1486H296V1474Z" fill="black" mask="url(#path-9-inside-5_101_15)"/>
<mask id="path-11-inside-6_101_15" fill="white">
<path d="M0 1480H296V1776H0V1480Z"/>
</mask>
<path d="M0 1480H296V1776H0V1480Z" fill="#D9D9D9"/>
<path d="M0 1485H296V1475H0V1485ZM296 1770H0V1782H296V1770Z" fill="black" mask="url(#path-11-inside-6_101_15)"/>
<mask id="path-13-inside-7_101_15" fill="white">
<path d="M0 1776H296V2072H0V1776Z"/>
</mask>
<path d="M0 1776H296V2072H0V1776Z" fill="#D9D9D9"/>
<path d="M0 1781H296V1771H0V1781ZM296 2066H0V2078H296V2066Z" fill="black" mask="url(#path-13-inside-7_101_15)"/>
<mask id="path-15-inside-8_101_15" fill="white">
<path d="M0 2072H296V2368H0V2072Z"/>
</mask>
<path d="M0 2072H296V2368H0V2072Z" fill="#D9D9D9"/>
<path d="M0 2077H296V2067H0V2077ZM296 2362H0V2374H296V2362Z" fill="black" mask="url(#path-15-inside-8_101_15)"/>
<mask id="path-17-inside-9_101_15" fill="white">
<path d="M0 2368H296V2664H0V2368Z"/>
</mask>
<path d="M0 2368H296V2664H0V2368Z" fill="#D9D9D9"/>
<path d="M0 2373H296V2363H0V2373ZM296 2658H0V2670H296V2658Z" fill="black" mask="url(#path-17-inside-9_101_15)"/>
<path d="M60 1236C60 1233.79 61.7909 1232 64 1232H240C242.209 1232 244 1233.79 244 1236V1288.66C244 1289.49 243.74 1290.3 243.256 1290.98L216.761 1328.1L190.267 1365.22C189.783 1365.9 189.523 1366.71 189.523 1367.54V1428C189.523 1430.21 187.732 1432 185.523 1432H118.477C116.268 1432 114.477 1430.21 114.477 1428V1367.54C114.477 1366.71 114.738 1365.9 115.222 1365.22L141.716 1328.1L164.441 1296.26C166.331 1293.61 164.438 1289.94 161.185 1289.94H118.477C116.268 1289.94 114.477 1291.73 114.477 1293.94V1306.88C114.477 1309.07 112.717 1310.85 110.528 1310.88L64.0511 1311.47C61.8222 1311.5 60 1309.7 60 1307.47V1236Z" fill="#7A1414" stroke="black" stroke-width="18"/>
<mask id="path-20-inside-10_101_15" fill="white">
<path fill-rule="evenodd" clip-rule="evenodd" d="M193.907 1881.35C184.228 1891.6 178.294 1905.42 178.294 1920.64C178.294 1938.93 186.878 1955.23 200.239 1965.71C206.108 1974.69 209.519 1985.43 209.519 1996.97C209.519 2028.58 183.889 2054.21 152.273 2054.21C120.656 2054.21 95.0259 2028.58 95.0259 1996.97C95.0259 1985.43 98.437 1974.69 104.305 1965.71C117.667 1955.23 126.252 1938.93 126.252 1920.64C126.252 1905.42 120.318 1891.6 110.639 1881.35C121.076 1870.29 135.869 1863.39 152.273 1863.39C168.677 1863.39 183.469 1870.29 193.907 1881.35Z"/>
</mask>
<path fill-rule="evenodd" clip-rule="evenodd" d="M193.907 1881.35C184.228 1891.6 178.294 1905.42 178.294 1920.64C178.294 1938.93 186.878 1955.23 200.239 1965.71C206.108 1974.69 209.519 1985.43 209.519 1996.97C209.519 2028.58 183.889 2054.21 152.273 2054.21C120.656 2054.21 95.0259 2028.58 95.0259 1996.97C95.0259 1985.43 98.437 1974.69 104.305 1965.71C117.667 1955.23 126.252 1938.93 126.252 1920.64C126.252 1905.42 120.318 1891.6 110.639 1881.35C121.076 1870.29 135.869 1863.39 152.273 1863.39C168.677 1863.39 183.469 1870.29 193.907 1881.35Z" fill="#EDE0BF"/>
<path d="M193.907 1881.35L206.995 1893.7L218.661 1881.35L206.995 1868.99L193.907 1881.35ZM200.239 1965.71L215.311 1955.86L213.686 1953.38L211.348 1951.54L200.239 1965.71ZM104.305 1965.71L93.1968 1951.54L90.8588 1953.38L89.2342 1955.87L104.305 1965.71ZM110.639 1881.35L97.55 1868.99L85.8843 1881.35L97.55 1893.7L110.639 1881.35ZM180.818 1868.99C168.111 1882.45 160.294 1900.65 160.294 1920.64H196.294C196.294 1910.2 200.345 1900.75 206.995 1893.7L180.818 1868.99ZM160.294 1920.64C160.294 1944.7 171.607 1966.12 189.13 1979.87L211.348 1951.54C202.15 1944.33 196.294 1933.17 196.294 1920.64H160.294ZM227.519 1996.97C227.519 1981.83 223.032 1967.69 215.311 1955.86L185.168 1975.55C189.184 1981.7 191.519 1989.03 191.519 1996.97H227.519ZM152.273 2072.21C193.83 2072.21 227.519 2038.52 227.519 1996.97H191.519C191.519 2018.64 173.948 2036.21 152.273 2036.21V2072.21ZM77.0259 1996.97C77.0259 2038.52 110.715 2072.21 152.273 2072.21V2036.21C130.597 2036.21 113.026 2018.64 113.026 1996.97H77.0259ZM89.2342 1955.87C81.5129 1967.69 77.0259 1981.83 77.0259 1996.97H113.026C113.026 1989.03 115.361 1981.7 119.377 1975.55L89.2342 1955.87ZM115.414 1979.87C132.939 1966.13 144.252 1944.7 144.252 1920.64H108.252C108.252 1933.17 102.395 1944.33 93.1968 1951.54L115.414 1979.87ZM144.252 1920.64C144.252 1900.65 136.435 1882.45 123.727 1868.99L97.55 1893.7C104.201 1900.75 108.252 1910.2 108.252 1920.64H144.252ZM152.273 1845.39C130.712 1845.39 111.246 1854.48 97.55 1868.99L123.727 1893.7C130.906 1886.1 141.025 1881.39 152.273 1881.39V1845.39ZM206.995 1868.99C193.299 1854.48 173.833 1845.39 152.273 1845.39V1881.39C163.52 1881.39 173.639 1886.1 180.818 1893.7L206.995 1868.99Z" fill="black" mask="url(#path-20-inside-10_101_15)"/>
<path d="M256.822 1908.1C235.784 1947.34 194.394 1974 146.794 1974C99.1945 1974 57.8049 1947.34 36.7668 1908.1C42.551 1892.18 51.4926 1877.86 62.7981 1865.93C84.3219 1860.59 101.537 1844.42 108.353 1823.53C116.664 1811.13 130.782 1803 146.794 1803C162.806 1803 176.925 1811.13 185.235 1823.53C192.052 1844.42 209.267 1860.59 230.791 1865.93C242.096 1877.86 251.038 1892.18 256.822 1908.1Z" fill="#7A1414" stroke="black" stroke-width="18"/>
<mask id="mask0_101_15" style="mask-type:alpha" maskUnits="userSpaceOnUse" x="27" y="1794" width="240" height="189">
<path d="M256.822 1908.1C235.784 1947.34 194.394 1974 146.794 1974C99.1945 1974 57.8049 1947.34 36.7668 1908.1C42.551 1892.18 51.4926 1877.86 62.7981 1865.93C84.322 1860.59 101.537 1844.42 108.353 1823.53C116.664 1811.13 130.782 1803 146.794 1803C162.806 1803 176.925 1811.13 185.235 1823.53C192.052 1844.42 209.267 1860.59 230.791 1865.93C242.096 1877.86 251.038 1892.18 256.822 1908.1Z" fill="#7A1414" stroke="black" stroke-width="18"/>
</mask>
<g mask="url(#mask0_101_15)">
<circle cx="226.812" cy="1909.79" r="40.3034" fill="#D9D9D9" stroke="black" stroke-width="18"/>
<circle cx="112.181" cy="1959.08" r="40.3034" fill="#D9D9D9" stroke="black" stroke-width="18"/>
<circle cx="99.1455" cy="1840.58" r="32.9992" fill="#D9D9D9" stroke="black" stroke-width="18"/>
</g>
<path d="M256.822 1908.1C235.784 1947.34 194.394 1974 146.794 1974C99.1945 1974 57.8049 1947.34 36.7668 1908.1C42.551 1892.18 51.4926 1877.86 62.7981 1865.93C84.3219 1860.59 101.537 1844.42 108.353 1823.53C116.664 1811.13 130.782 1803 146.794 1803C162.806 1803 176.925 1811.13 185.235 1823.53C192.052 1844.42 209.267 1860.59 230.791 1865.93C242.096 1877.86 251.038 1892.18 256.822 1908.1Z" stroke="black" stroke-width="18"/>
<path d="M263 2190.49L148 2315L33 2190.49L102.311 2127.05C103.049 2126.37 104.012 2126 105.012 2126H148H190.988C191.988 2126 192.951 2126.37 193.689 2127.05L263 2190.49Z" fill="#2463DD"/>
<path d="M148 2315L263 2190.49M148 2315L33 2190.49M148 2315L90.5 2206.1M148 2315L205.5 2206.1M263 2190.49L205.5 2206.1M263 2190.49L193.689 2127.05C192.951 2126.37 191.988 2126 190.988 2126H148M33 2190.49L90.5 2206.1M33 2190.49L102.311 2127.05C103.049 2126.37 104.012 2126 105.012 2126H148M148 2126L205.5 2206.1M148 2126L90.5 2206.1M90.5 2206.1L147.565 2212.34C147.854 2212.37 148.146 2212.37 148.435 2212.34L205.5 2206.1" stroke="black" stroke-width="18"/>
<path d="M137.981 2408.55C142.723 2401.36 153.277 2401.36 158.019 2408.55L184.181 2448.24C188.183 2454.31 194.254 2458.72 201.265 2460.65L247.094 2473.27C255.401 2475.55 258.662 2485.59 253.286 2492.33L223.626 2529.47C219.088 2535.15 216.769 2542.29 217.1 2549.55L219.262 2597.04C219.654 2605.65 211.116 2611.85 203.051 2608.82L158.559 2592.09C151.752 2589.53 144.248 2589.53 137.441 2592.09L92.9487 2608.82C84.8836 2611.85 76.3457 2605.65 76.7376 2597.04L78.8998 2549.55C79.2305 2542.29 76.9115 2535.15 72.3741 2529.47L42.714 2492.33C37.3376 2485.59 40.5988 2475.55 48.9061 2473.27L94.735 2460.65C101.746 2458.72 107.817 2454.31 111.819 2448.24L137.981 2408.55Z" fill="#E7E03F" stroke="black" stroke-width="18"/>
<path d="M200.666 1535.16L104.457 1639.84C103.006 1641.42 103.057 1643.86 104.573 1645.38L130.815 1671.62C132.331 1673.14 134.772 1673.19 136.35 1671.74L241.031 1575.53C241.791 1574.83 242.251 1573.87 242.317 1572.84L244.675 1535.76C244.828 1533.36 242.834 1531.37 240.429 1531.52L203.357 1533.88C202.328 1533.94 201.364 1534.4 200.666 1535.16Z" fill="#D9D9D9" stroke="black" stroke-width="18"/>
<mask id="path-32-outside-11_101_15" maskUnits="userSpaceOnUse" x="16.983" y="1623.44" width="137.179" height="137.179" fill="black">
<rect fill="white" x="16.983" y="1623.44" width="137.179" height="137.179"/>
<path fill-rule="evenodd" clip-rule="evenodd" d="M123.863 1669.51L107.733 1653.38L68.9532 1692.16C63.9808 1691.65 58.8971 1693.25 55.1619 1696.99C48.4451 1703.7 48.6328 1714.78 55.5813 1721.73C62.5297 1728.68 73.6076 1728.87 80.3244 1722.15C84.0896 1718.38 85.6852 1713.25 85.1365 1708.24L123.863 1669.51Z"/>
</mask>
<path fill-rule="evenodd" clip-rule="evenodd" d="M123.863 1669.51L107.733 1653.38L68.9532 1692.16C63.9808 1691.65 58.8971 1693.25 55.1619 1696.99C48.4451 1703.7 48.6328 1714.78 55.5813 1721.73C62.5297 1728.68 73.6076 1728.87 80.3244 1722.15C84.0896 1718.38 85.6852 1713.25 85.1365 1708.24L123.863 1669.51Z" fill="#646464"/>
<path d="M107.733 1653.38L120.461 1640.65L107.733 1627.93L95.0053 1640.65L107.733 1653.38ZM123.863 1669.51L136.591 1682.24L149.319 1669.51L136.591 1656.78L123.863 1669.51ZM68.9532 1692.16L67.1151 1710.07L75.6291 1710.94L81.6811 1704.89L68.9532 1692.16ZM85.1365 1708.24L72.4086 1695.51L66.3037 1701.62L67.2435 1710.2L85.1365 1708.24ZM95.0053 1666.11L111.135 1682.24L136.591 1656.78L120.461 1640.65L95.0053 1666.11ZM81.6811 1704.89L120.461 1666.11L95.0053 1640.65L56.2252 1679.43L81.6811 1704.89ZM67.8898 1709.71C67.7548 1709.85 67.5702 1709.96 67.3937 1710.02C67.2373 1710.08 67.1419 1710.07 67.1151 1710.07L70.7912 1674.26C60.793 1673.23 50.2479 1676.44 42.434 1684.26L67.8898 1709.71ZM68.3092 1709C68.207 1708.9 68.243 1708.88 68.2445 1708.97C68.2453 1709.01 68.2388 1709.12 68.1793 1709.27C68.1141 1709.43 68.0077 1709.6 67.8898 1709.71L42.434 1684.26C28.2844 1698.41 29.2856 1720.89 42.8533 1734.46L68.3092 1709ZM67.5965 1709.42C67.7145 1709.3 67.8768 1709.2 68.0433 1709.13C68.1954 1709.07 68.3005 1709.07 68.3448 1709.07C68.4333 1709.07 68.4114 1709.1 68.3092 1709L42.8533 1734.46C56.4211 1748.03 78.9028 1749.03 93.0524 1734.88L67.5965 1709.42ZM67.2435 1710.2C67.2407 1710.17 67.2351 1710.08 67.2877 1709.92C67.3473 1709.74 67.4601 1709.56 67.5965 1709.42L93.0524 1734.88C100.93 1727 104.132 1716.35 103.03 1706.28L67.2435 1710.2ZM111.135 1656.78L72.4086 1695.51L97.8644 1720.97L136.591 1682.24L111.135 1656.78Z" fill="black" mask="url(#path-32-outside-11_101_15)"/>
<mask id="path-34-outside-12_101_15" maskUnits="userSpaceOnUse" x="23.8242" y="1570.09" width="183.848" height="183.848" fill="black">
<rect fill="white" x="23.8242" y="1570.09" width="183.848" height="183.848"/>
<path fill-rule="evenodd" clip-rule="evenodd" d="M168.092 1714C160.575 1721.51 148.615 1721.74 141.377 1714.5C136.833 1709.96 135.23 1703.55 136.527 1697.56L79.6908 1640.72C73.6924 1642.02 67.2871 1640.41 62.7432 1635.87C55.5052 1628.63 55.7309 1616.67 63.2472 1609.15C70.7636 1601.64 82.7243 1601.41 89.9623 1608.65C94.506 1613.19 96.1084 1619.6 94.8123 1625.6L151.648 1682.43C157.646 1681.14 164.052 1682.74 168.596 1687.28C175.834 1694.52 175.608 1706.48 168.092 1714Z"/>
</mask>
<path fill-rule="evenodd" clip-rule="evenodd" d="M168.092 1714C160.575 1721.51 148.615 1721.74 141.377 1714.5C136.833 1709.96 135.23 1703.55 136.527 1697.56L79.6908 1640.72C73.6924 1642.02 67.2871 1640.41 62.7432 1635.87C55.5052 1628.63 55.7309 1616.67 63.2472 1609.15C70.7636 1601.64 82.7243 1601.41 89.9623 1608.65C94.506 1613.19 96.1084 1619.6 94.8123 1625.6L151.648 1682.43C157.646 1681.14 164.052 1682.74 168.596 1687.28C175.834 1694.52 175.608 1706.48 168.092 1714Z" fill="#646464"/>
<path d="M136.527 1697.56L154.12 1701.36L156.193 1691.77L149.255 1684.83L136.527 1697.56ZM79.6908 1640.72L92.4187 1627.99L85.4799 1621.05L75.8883 1623.13L79.6908 1640.72ZM94.8123 1625.6L77.2184 1621.8L75.1458 1631.39L82.0843 1638.33L94.8123 1625.6ZM151.648 1682.43L138.92 1695.16L145.859 1702.1L155.451 1700.03L151.648 1682.43ZM128.649 1727.23C143.365 1741.95 166.731 1740.82 180.82 1726.73L155.364 1701.27C154.962 1701.67 154.56 1701.78 154.29 1701.79C154.155 1701.79 154.088 1701.76 154.082 1701.76C154.08 1701.76 154.087 1701.76 154.099 1701.77C154.111 1701.78 154.114 1701.78 154.104 1701.77L128.649 1727.23ZM118.933 1693.75C116.442 1705.28 119.462 1718.04 128.649 1727.23L154.104 1701.77C154.095 1701.76 154.102 1701.77 154.112 1701.79C154.12 1701.8 154.117 1701.8 154.111 1701.78C154.097 1701.73 154.073 1701.58 154.12 1701.36L118.933 1693.75ZM149.255 1684.83L92.4187 1627.99L66.9629 1653.45L123.799 1710.28L149.255 1684.83ZM50.0153 1648.6C59.2025 1657.79 71.9691 1660.8 83.4934 1658.31L75.8883 1623.13C75.667 1623.17 75.5172 1623.15 75.4652 1623.14C75.4434 1623.13 75.4438 1623.13 75.4579 1623.13C75.4746 1623.14 75.4807 1623.15 75.4711 1623.14L50.0153 1648.6ZM50.5193 1596.43C36.4305 1610.52 35.2994 1633.88 50.0153 1648.6L75.4711 1623.14C75.462 1623.13 75.4659 1623.14 75.474 1623.15C75.4814 1623.16 75.4841 1623.17 75.4833 1623.16C75.4811 1623.16 75.4566 1623.09 75.4591 1622.96C75.4642 1622.69 75.5736 1622.28 75.9752 1621.88L50.5193 1596.43ZM102.69 1595.92C87.9743 1581.21 64.6081 1582.34 50.5193 1596.43L75.9752 1621.88C76.3767 1621.48 76.7784 1621.37 77.0487 1621.37C77.1834 1621.36 77.2511 1621.39 77.2567 1621.39C77.2587 1621.39 77.2516 1621.39 77.2402 1621.38C77.2278 1621.37 77.2252 1621.37 77.2344 1621.38L102.69 1595.92ZM112.406 1629.4C114.896 1617.88 111.877 1605.11 102.69 1595.92L77.2344 1621.38C77.244 1621.39 77.2366 1621.38 77.227 1621.37C77.2188 1621.35 77.2213 1621.35 77.2274 1621.37C77.2417 1621.42 77.2662 1621.57 77.2184 1621.8L112.406 1629.4ZM82.0843 1638.33L138.92 1695.16L164.376 1669.71L107.54 1612.87L82.0843 1638.33ZM181.324 1674.56C172.136 1665.37 159.37 1662.35 147.846 1664.84L155.451 1700.03C155.672 1699.98 155.822 1700 155.874 1700.02C155.895 1700.02 155.895 1700.03 155.881 1700.02C155.864 1700.01 155.858 1700 155.868 1700.01L181.324 1674.56ZM180.82 1726.73C194.908 1712.64 196.039 1689.27 181.324 1674.56L155.868 1700.01C155.877 1700.02 155.873 1700.02 155.865 1700.01C155.857 1699.99 155.855 1699.99 155.856 1699.99C155.858 1699.99 155.882 1700.06 155.88 1700.2C155.875 1700.47 155.765 1700.87 155.364 1701.27L180.82 1726.73Z" fill="black" mask="url(#path-34-outside-12_101_15)"/>
<rect x="97" y="958" width="144" height="145" fill="white" fill-opacity="0.19"/>
<path d="M247 1089V944H103L57 983V1128H201L247 1089Z" fill="#D9D9D9"/>
<path d="M247 944C247 1000.63 247 1089 247 1089L201 1128M247 944C190.764 944 103 944 103 944L57 983M247 944C229.036 959.23 201 983 201 983M57 983V1128H201M57 983H201M201 1128V983" stroke="black" stroke-width="18"/>
<circle cx="129.5" cy="1055.5" r="17.5" fill="black"/>
<ellipse cx="9.5" cy="17.5" rx="9.5" ry="17.5" transform="matrix(-1 0 0 1 234 1019)" fill="black"/>
<circle cx="158.491" cy="1026.51" r="17.5" transform="rotate(45 158.491 1026.51)" fill="black"/>
<circle cx="12.5" cy="12.5" r="12.5" transform="matrix(-0.970519 0.241026 0.970519 0.241026 125.843 953)" fill="black"/>
<circle cx="100.509" cy="1084.49" r="17.5" transform="rotate(45 100.509 1084.49)" fill="black"/>
<circle cx="12.5" cy="12.5" r="12.5" transform="matrix(-0.970519 0.241026 0.970519 0.241026 174.676 962.127)" fill="black"/>
<mask id="path-45-outside-13_101_15" maskUnits="userSpaceOnUse" x="83.3621" y="390.258" width="137" height="167" fill="black">
<rect fill="white" x="83.3621" y="390.258" width="137" height="167"/>
<path fill-rule="evenodd" clip-rule="evenodd" d="M101.362 539C101.362 538.999 101.362 538.999 101.362 538.999C128.726 538.756 150.882 481.817 150.917 411.581C150.952 481.968 173.204 539 200.648 539C201.167 539 201.683 538.98 202.197 538.939C202.215 538.938 202.23 538.952 202.23 538.97C202.23 538.986 202.216 539 202.2 539H101.362C101.362 539 101.362 539 101.362 539ZM150.932 408.273C150.932 408.265 150.926 408.258 150.917 408.258C150.909 408.258 150.903 408.265 150.903 408.273C150.912 409.262 150.917 410.253 150.917 411.247C150.918 410.253 150.923 409.262 150.932 408.273Z"/>
</mask>
<path fill-rule="evenodd" clip-rule="evenodd" d="M101.362 539C101.362 538.999 101.362 538.999 101.362 538.999C128.726 538.756 150.882 481.817 150.917 411.581C150.952 481.968 173.204 539 200.648 539C201.167 539 201.683 538.98 202.197 538.939C202.215 538.938 202.23 538.952 202.23 538.97C202.23 538.986 202.216 539 202.2 539H101.362C101.362 539 101.362 539 101.362 539ZM150.932 408.273C150.932 408.265 150.926 408.258 150.917 408.258C150.909 408.258 150.903 408.265 150.903 408.273C150.912 409.262 150.917 410.253 150.917 411.247C150.918 410.253 150.923 409.262 150.932 408.273Z" fill="#161616"/>
<path d="M150.917 411.581L168.917 411.572L132.917 411.572L150.917 411.581ZM150.917 411.247L132.917 411.256H168.917L150.917 411.247ZM150.932 408.273L132.933 408.104L150.932 408.273ZM202.197 538.939L203.606 556.884L202.197 538.939ZM150.903 408.273L132.903 408.443L150.903 408.273ZM101.362 538.999L101.202 521L101.362 538.999ZM132.917 411.572C132.901 445.038 127.583 474.522 119.612 495.012C115.606 505.312 111.274 512.444 107.371 516.707C103.475 520.96 101.361 520.998 101.202 521L101.523 556.998C115.045 556.878 125.962 549.708 133.918 541.022C141.865 532.345 148.206 520.807 153.163 508.063C163.121 482.463 168.899 448.36 168.917 411.59L132.917 411.572ZM200.648 521C200.504 521 198.421 520.997 194.536 516.785C190.635 512.556 186.294 505.444 182.273 495.142C174.275 474.649 168.934 445.111 168.917 411.572L132.917 411.59C132.936 448.438 138.738 482.609 148.736 508.229C153.713 520.983 160.083 532.529 168.074 541.193C176.081 549.874 187.07 557 200.648 557V521ZM200.789 520.994C200.742 520.998 200.695 521 200.648 521V557C201.638 557 202.624 556.961 203.606 556.884L200.789 520.994ZM202.2 521H101.362V557H202.2V521ZM132.903 408.443C132.912 409.378 132.917 410.316 132.917 411.256L168.917 411.238C168.917 410.191 168.912 409.146 168.902 408.104L132.903 408.443ZM168.917 411.256C168.918 410.316 168.922 409.378 168.931 408.443L132.933 408.104C132.923 409.146 132.918 410.191 132.917 411.238L168.917 411.256ZM150.917 426.258C140.919 426.258 132.839 418.104 132.933 408.104L168.931 408.443C169.026 398.426 160.932 390.258 150.917 390.258V426.258ZM101.362 521C111.428 521 119.362 529.184 119.362 539H83.3621C83.3621 548.816 91.2966 557 101.362 557V521ZM184.23 538.97C184.23 529.045 192.275 521 202.2 521V557C212.158 557 220.23 548.928 220.23 538.97H184.23ZM203.606 556.884C193.179 557.702 184.23 549.468 184.23 538.97H220.23C220.23 528.436 211.251 520.173 200.789 520.994L203.606 556.884ZM150.917 390.258C140.903 390.258 132.809 398.426 132.903 408.443L168.902 408.104C168.996 418.104 160.915 426.258 150.917 426.258V390.258ZM101.202 521C91.6084 521.085 83.3621 528.839 83.3621 539H119.362C119.362 549.16 111.116 556.913 101.523 556.998L101.202 521Z" fill="black" mask="url(#path-45-outside-13_101_15)"/>
<mask id="path-47-outside-14_101_15" maskUnits="userSpaceOnUse" x="44" y="323" width="214" height="187" fill="black">
<rect fill="white" x="44" y="323" width="214" height="187"/>
<path fill-rule="evenodd" clip-rule="evenodd" d="M150.917 341C151.08 341 151.217 341.125 151.234 341.287C154.078 368.47 175.758 390.049 202.989 392.734C203.356 392.77 203.723 392.835 204.077 392.939C224.626 398.944 239.694 417.865 239.834 440.371C240.005 467.836 217.878 490.239 190.413 490.41C177.285 490.492 165.313 485.479 156.373 477.223C153.509 474.579 148.857 474.615 146.035 477.305C137.186 485.738 125.229 490.947 112.04 491.029C84.5753 491.2 62.1719 469.073 62.001 441.608C61.8518 417.628 78.6996 397.507 101.258 392.673C101.318 392.66 101.362 392.606 101.362 392.544C101.362 392.479 101.411 392.423 101.475 392.414C127.462 388.644 147.849 367.59 150.601 341.287C150.618 341.125 150.754 341 150.917 341Z"/>
</mask>
<path fill-rule="evenodd" clip-rule="evenodd" d="M150.917 341C151.08 341 151.217 341.125 151.234 341.287C154.078 368.47 175.758 390.049 202.989 392.734C203.356 392.77 203.723 392.835 204.077 392.939C224.626 398.944 239.694 417.865 239.834 440.371C240.005 467.836 217.878 490.239 190.413 490.41C177.285 490.492 165.313 485.479 156.373 477.223C153.509 474.579 148.857 474.615 146.035 477.305C137.186 485.738 125.229 490.947 112.04 491.029C84.5753 491.2 62.1719 469.073 62.001 441.608C61.8518 417.628 78.6996 397.507 101.258 392.673C101.318 392.66 101.362 392.606 101.362 392.544C101.362 392.479 101.411 392.423 101.475 392.414C127.462 388.644 147.849 367.59 150.601 341.287C150.618 341.125 150.754 341 150.917 341Z" fill="#161616"/>
<path d="M239.834 440.371L221.834 440.483V440.483L239.834 440.371ZM190.413 490.41L190.301 472.41L190.413 490.41ZM112.04 491.029L111.928 473.029H111.928L112.04 491.029ZM62.001 441.608L44.0013 441.72L62.001 441.608ZM150.601 341.287L132.699 339.414L150.601 341.287ZM101.475 392.414L104.059 410.227L101.475 392.414ZM101.258 392.673L97.4856 375.072L101.258 392.673ZM146.035 477.305L133.616 464.275L146.035 477.305ZM202.989 392.734L201.223 410.647L202.989 392.734ZM204.077 392.939L209.127 375.661L204.077 392.939ZM151.234 341.287L169.136 339.414L151.234 341.287ZM133.332 343.16C137.064 378.837 165.483 407.123 201.223 410.647L204.756 374.821C186.034 372.975 171.091 358.104 169.136 339.414L133.332 343.16ZM257.834 440.259C257.643 409.581 237.1 383.837 209.127 375.661L199.028 410.216C212.152 414.052 221.745 426.149 221.834 440.483L257.834 440.259ZM190.525 508.41C227.931 508.177 258.066 477.665 257.834 440.259L221.834 440.483C221.943 458.007 207.826 472.301 190.301 472.41L190.525 508.41ZM144.161 490.447C156.322 501.677 172.654 508.521 190.525 508.41L190.301 472.41C181.916 472.463 174.304 469.281 168.584 463.999L144.161 490.447ZM112.152 509.028C130.106 508.917 146.418 501.806 158.454 490.334L133.616 464.275C127.955 469.671 120.352 472.977 111.928 473.029L112.152 509.028ZM44.0013 441.72C44.234 479.126 74.7463 509.261 112.152 509.028L111.928 473.029C94.4042 473.138 80.1097 459.02 80.0006 441.496L44.0013 441.72ZM97.4856 375.072C66.7561 381.658 43.798 409.04 44.0013 441.72L80.0006 441.496C79.9056 426.217 90.6431 413.356 105.03 410.273L97.4856 375.072ZM104.059 410.227C138.165 405.28 164.891 377.688 168.503 343.16L132.699 339.414C130.808 357.491 116.758 372.009 98.8912 374.6L104.059 410.227ZM168.503 343.16C167.575 352.035 160.099 359 150.917 359V323C141.41 323 133.661 330.214 132.699 339.414L168.503 343.16ZM119.362 392.544C119.362 401.51 112.757 408.966 104.059 410.227L98.8912 374.6C90.064 375.881 83.3621 383.447 83.3621 392.544H119.362ZM105.03 410.273C113.314 408.498 119.362 401.171 119.362 392.544H83.3621C83.3621 384.042 89.3228 376.822 97.4856 375.072L105.03 410.273ZM168.584 463.999C158.744 454.912 143.312 455.034 133.616 464.275L158.454 490.334C154.402 494.196 148.273 494.245 144.161 490.447L168.584 463.999ZM201.223 410.647C200.676 410.593 199.921 410.477 199.028 410.216L209.127 375.661C207.525 375.193 206.037 374.947 204.756 374.821L201.223 410.647ZM169.136 339.414C168.174 330.217 160.427 323 150.917 323V359C141.734 359 134.26 352.033 133.332 343.16L169.136 339.414Z" fill="black" mask="url(#path-47-outside-14_101_15)"/>
<circle cx="139.5" cy="148.5" r="99.5" fill="#684614" stroke="black" stroke-width="18"/>
<circle cx="164.465" cy="148.5" r="99.5" fill="#D99229" stroke="black" stroke-width="18"/>
<path d="M194.25 112.741L181.999 124.675C176.413 118.92 170.891 116.042 165.432 116.042C162.215 116.042 159.592 116.91 157.561 118.645C155.572 120.337 154.577 122.305 154.577 124.548C154.577 126.452 155.466 128.336 157.243 130.198C158.978 132.102 162.491 134.133 167.78 136.291C177.175 140.184 183.607 143.506 187.077 146.257C190.547 149.008 193.213 152.309 195.075 156.159C196.937 160.01 197.868 164.327 197.868 169.109C197.868 173.891 196.874 178.313 194.885 182.375C192.896 186.438 190.336 189.654 187.204 192.024C184.073 194.393 179.566 196.192 173.684 197.419V214.367H161.75V197.8C156.206 197.165 151.488 195.769 147.595 193.611C142.263 190.648 137.312 186.713 132.741 181.804L144.802 169.426C152.546 177.678 160.036 181.804 167.272 181.804C170.954 181.804 174.107 180.534 176.73 177.995C179.396 175.414 180.729 172.388 180.729 168.918C180.729 165.998 179.883 163.438 178.19 161.238C176.455 159.037 173.112 156.794 168.161 154.509C158.09 149.854 151.276 146.172 147.722 143.464C144.167 140.713 141.501 137.645 139.724 134.26C137.989 130.832 137.121 127.193 137.121 123.342C137.121 116.952 139.449 111.493 144.104 106.965C148.758 102.395 154.641 99.9403 161.75 99.6018V93.2542H173.684V100.427C177.788 101.4 181.258 102.712 184.094 104.363C186.971 106.013 190.357 108.806 194.25 112.741Z" fill="black"/>
<path d="M71 742.259C71 700.009 105.25 665.759 147.5 665.759C189.75 665.759 224 700.009 224 742.259V820.724H71V742.259Z" fill="#D99229" stroke="black" stroke-width="18"/>
<rect x="52" y="804" width="191" height="43.5862" rx="21.7931" fill="#D99229" stroke="black" stroke-width="18"/>
<circle cx="147.5" cy="657.086" r="24.0862" fill="#D99229" stroke="black" stroke-width="18"/>
</svg>
